<svg xmlns="http://www.w3.org/2000/svg" viewBox="0 0 340 240" font-family="Segoe UI, Arial, sans-serif">
  <style>
    text { fill:#EAEAEA; }
    .wire { fill:none; stroke:#EAEAEA; stroke-width:2; }
    .lbl { font-size:12px; }
  </style>
  <path class="wire" d="M60,50 L150,50 M166,50 L280,50"/>
  <line class="wire" x1="150" y1="34" x2="150" y2="66" stroke-width="2.4"/>
  <line class="wire" x1="166" y1="42" x2="166" y2="58" stroke-width="5"/>
  <path class="wire" d="M60,50 L60,210"/>
  <path class="wire" d="M280,50 L280,210"/>
  <!-- branch 1 -->
  <path class="wire" d="M60,90 L120,90"/>
  <rect class="wire" x="120" y="78" width="46" height="24"/>
  <path class="wire" d="M166,90 L280,90"/>
  <text x="143" y="72" class="lbl" text-anchor="middle">3 &#8486;</text>
  <!-- branch 2 -->
  <path class="wire" d="M60,140 L120,140"/>
  <rect class="wire" x="120" y="128" width="46" height="24"/>
  <path class="wire" d="M166,140 L280,140"/>
  <text x="143" y="122" class="lbl" text-anchor="middle">6 &#8486;</text>
  <!-- branch 3 -->
  <path class="wire" d="M60,190 L120,190"/>
  <rect class="wire" x="120" y="178" width="46" height="24"/>
  <path class="wire" d="M166,190 L280,190"/>
  <text x="143" y="172" class="lbl" text-anchor="middle">6 &#8486;</text>
</svg>
