<svg xmlns="http://www.w3.org/2000/svg" viewBox="0 0 580 340" font-family="Segoe UI, Arial, sans-serif">
  <style> text{fill:#EAEAEA;} .leader{stroke:#9AA0A6;stroke-width:1.1;} </style>
  <defs>
    <marker id="ah" markerWidth="8" markerHeight="8" refX="6" refY="4" orient="auto"><path d="M0,0 L8,4 L0,8 z" fill="#EAEAEA"/></marker>
    <marker id="ag" markerWidth="8" markerHeight="8" refX="6" refY="4" orient="auto"><path d="M0,0 L8,4 L0,8 z" fill="#86C98B"/></marker>
  </defs>
  <g>
    <path d="M330,120 Q430,90 500,175 Q430,260 330,230 Q360,175 330,120 Z" fill="#86C98B" fill-opacity="0.16" stroke="#86C98B" stroke-width="1.8"/>
    <path d="M338,150 Q420,175 495,178" fill="none" stroke="#86C98B" stroke-width="1.3" opacity="0.8"/>
    <path d="M395,140 Q410,160 470,150" fill="none" stroke="#86C98B" stroke-width="0.9" opacity="0.6"/>
    <path d="M388,200 Q410,180 465,200" fill="none" stroke="#86C98B" stroke-width="0.9" opacity="0.6"/>
  </g>
  <text x="505" y="200" font-size="13.5" fill="#86C98B">leaf</text>
<path d="M150.0,70.0 L151.6,73.2 L153.4,75.8 L155.7,77.4 L158.4,78.0 L161.6,77.6 L165.0,76.7 L168.4,75.7 L171.6,75.3 L174.3,75.9 L176.6,77.5 L178.4,80.2 L180.0,83.3 L181.6,86.5 L183.4,89.1 L185.7,90.8 L188.4,91.3 L191.6,90.9 L195.0,90.0 L198.4,89.1 L201.6,88.7 L204.3,89.2 L206.6,90.9 L208.4,93.5 L210.0,96.7 L211.6,99.8 L213.4,102.5 L215.7,104.1 L218.4,104.7 L221.6,104.3 L225.0,103.3 L228.4,102.4 L231.6,102.0 L234.3,102.6 L236.6,104.2 L238.4,106.8 L240.0,110.0 L241.6,113.2 L243.4,115.8 L245.7,117.4 L248.4,118.0 L251.6,117.6 L255.0,116.7 L258.4,115.7 L261.6,115.3 L264.3,115.9 L266.6,117.5 L268.4,120.2 L270.0,123.3 L271.6,126.5 L273.4,129.1 L275.7,130.8 L278.4,131.3 L281.6,130.9 L285.0,130.0 L288.4,129.1 L291.6,128.7 L294.3,129.2 L296.6,130.9 L298.4,133.5 L300.0,136.7 L301.6,139.8 L303.4,142.5 L305.7,144.1 L308.4,144.7 L311.6,144.3 L315.0,143.3 L318.4,142.4 L321.6,142.0 L324.3,142.6 L326.6,144.2 L328.4,146.8 L330.0,150.0" fill="none" stroke="#E58F8F" stroke-width="1.8" marker-end="url(#ah)"/>
<path d="M150.0,84.0 L151.6,87.1 L153.5,89.7 L155.7,91.3 L158.5,91.8 L161.6,91.4 L165.0,90.3 L168.4,89.3 L171.5,88.9 L174.3,89.4 L176.5,91.0 L178.4,93.5 L180.0,96.7 L181.6,99.8 L183.5,102.4 L185.7,104.0 L188.5,104.5 L191.6,104.0 L195.0,103.0 L198.4,102.0 L201.5,101.5 L204.3,102.0 L206.5,103.6 L208.4,106.2 L210.0,109.3 L211.6,112.5 L213.5,115.0 L215.7,116.6 L218.5,117.1 L221.6,116.7 L225.0,115.7 L228.4,114.6 L231.5,114.2 L234.3,114.7 L236.5,116.3 L238.4,118.9 L240.0,122.0 L241.6,125.1 L243.5,127.7 L245.7,129.3 L248.5,129.8 L251.6,129.4 L255.0,128.3 L258.4,127.3 L261.5,126.9 L264.3,127.4 L266.5,129.0 L268.4,131.5 L270.0,134.7 L271.6,137.8 L273.5,140.4 L275.7,142.0 L278.5,142.5 L281.6,142.0 L285.0,141.0 L288.4,140.0 L291.5,139.5 L294.3,140.0 L296.5,141.6 L298.4,144.2 L300.0,147.3 L301.6,150.5 L303.5,153.0 L305.7,154.6 L308.5,155.1 L311.6,154.7 L315.0,153.7 L318.4,152.6 L321.5,152.2 L324.3,152.7 L326.5,154.3 L328.4,156.9 L330.0,160.0" fill="none" stroke="#E8B65A" stroke-width="1.8" marker-end="url(#ah)"/>
<path d="M150.0,98.0 L151.7,101.1 L153.6,103.6 L155.8,105.2 L158.6,105.6 L161.7,105.1 L165.0,104.0 L168.3,102.9 L171.4,102.4 L174.2,102.8 L176.4,104.4 L178.3,106.9 L180.0,110.0 L181.7,113.1 L183.6,115.6 L185.8,117.2 L188.6,117.6 L191.7,117.1 L195.0,116.0 L198.3,114.9 L201.4,114.4 L204.2,114.8 L206.4,116.4 L208.3,118.9 L210.0,122.0 L211.7,125.1 L213.6,127.6 L215.8,129.2 L218.6,129.6 L221.7,129.1 L225.0,128.0 L228.3,126.9 L231.4,126.4 L234.2,126.8 L236.4,128.4 L238.3,130.9 L240.0,134.0 L241.7,137.1 L243.6,139.6 L245.8,141.2 L248.6,141.6 L251.7,141.1 L255.0,140.0 L258.3,138.9 L261.4,138.4 L264.2,138.8 L266.4,140.4 L268.3,142.9 L270.0,146.0 L271.7,149.1 L273.6,151.6 L275.8,153.2 L278.6,153.6 L281.7,153.1 L285.0,152.0 L288.3,150.9 L291.4,150.4 L294.2,150.8 L296.4,152.4 L298.3,154.9 L300.0,158.0 L301.7,161.1 L303.6,163.6 L305.8,165.2 L308.6,165.6 L311.7,165.1 L315.0,164.0 L318.3,162.9 L321.4,162.4 L324.2,162.8 L326.4,164.4 L328.3,166.9 L330.0,170.0" fill="none" stroke="#6FB7E0" stroke-width="1.8" marker-end="url(#ah)"/>
<path d="M150.0,112.0 L151.7,115.0 L153.6,117.5 L155.9,119.0 L158.6,119.4 L161.7,118.8 L165.0,117.7 L168.3,116.5 L171.4,115.9 L174.1,116.3 L176.4,117.8 L178.3,120.3 L180.0,123.3 L181.7,126.4 L183.6,128.9 L185.9,130.4 L188.6,130.8 L191.7,130.2 L195.0,129.0 L198.3,127.8 L201.4,127.2 L204.1,127.6 L206.4,129.1 L208.3,131.6 L210.0,134.7 L211.7,137.7 L213.6,140.2 L215.9,141.7 L218.6,142.1 L221.7,141.5 L225.0,140.3 L228.3,139.2 L231.4,138.6 L234.1,139.0 L236.4,140.5 L238.3,143.0 L240.0,146.0 L241.7,149.0 L243.6,151.5 L245.9,153.0 L248.6,153.4 L251.7,152.8 L255.0,151.7 L258.3,150.5 L261.4,149.9 L264.1,150.3 L266.4,151.8 L268.3,154.3 L270.0,157.3 L271.7,160.4 L273.6,162.9 L275.9,164.4 L278.6,164.8 L281.7,164.2 L285.0,163.0 L288.3,161.8 L291.4,161.2 L294.1,161.6 L296.4,163.1 L298.3,165.6 L300.0,168.7 L301.7,171.7 L303.6,174.2 L305.9,175.7 L308.6,176.1 L311.7,175.5 L315.0,174.3 L318.3,173.2 L321.4,172.6 L324.1,173.0 L326.4,174.5 L328.3,177.0 L330.0,180.0" fill="none" stroke="#B79AE0" stroke-width="1.8" marker-end="url(#ah)"/>
  <text x="120" y="36" font-size="13.5">different EM waves</text>
  <text x="120" y="52" font-size="13.5">striking the leaf</text>
<path d="M325.0,195.0 L322.3,193.1 L319.7,191.8 L317.4,191.7 L315.4,192.9 L313.7,195.2 L312.2,198.1 L310.6,201.1 L308.9,203.4 L307.0,204.5 L304.7,204.4 L302.1,203.2 L299.4,201.2 L296.6,199.3 L294.1,198.1 L291.8,198.0 L289.8,199.1 L288.1,201.4 L286.6,204.4 L285.0,207.3 L283.3,209.6 L281.3,210.8 L279.0,210.7 L276.5,209.4 L273.8,207.5 L271.0,205.6 L268.5,204.3 L266.2,204.2 L264.2,205.4 L262.5,207.7 L260.9,210.6 L259.4,213.6 L257.7,215.9 L255.7,217.0 L253.4,216.9 L250.9,215.7 L248.1,213.8 L245.4,211.8 L242.8,210.6 L240.5,210.5 L238.6,211.6 L236.9,213.9 L235.3,216.9 L233.8,219.8 L232.1,222.1 L230.1,223.3 L227.8,223.2 L225.2,221.9 L222.5,220.0 L219.8,218.1 L217.2,216.8 L214.9,216.7 L212.9,217.9 L211.2,220.2 L209.7,223.1 L208.1,226.1 L206.4,228.4 L204.5,229.5 L202.2,229.4 L199.6,228.2 L196.9,226.2 L194.1,224.3 L191.6,223.1 L189.3,223.0 L187.3,224.1 L185.6,226.4 L184.1,229.4 L182.5,232.3 L180.8,234.6 L178.8,235.8 L176.5,235.7 L174.0,234.4 L171.2,232.5 L168.5,230.6 L166.0,229.3 L163.7,229.2 L161.7,230.4 L160.0,232.7 L158.4,235.6 L156.9,238.6 L155.2,240.9 L153.2,242.0 L150.9,241.9 L148.4,240.7 L145.6,238.8 L142.9,236.8 L140.3,235.6 L138.0,235.5 L136.1,236.6 L134.4,238.9 L132.8,241.9 L131.3,244.8 L129.6,247.1 L127.6,248.3 L125.3,248.2 L122.7,246.9 L120.0,245.0" fill="none" stroke="#86C98B" stroke-width="2.1" marker-end="url(#ag)"/>
  <text x="20" y="285" font-size="13.5" fill="#86C98B">reflected green EM wave</text>
  <text x="20" y="301" font-size="12.5">&#8594; our eyes see the leaf as green</text>
  <g transform="translate(96,250)">
    <path d="M-18,0 Q0,-14 18,0 Q0,14 -18,0 Z" fill="none" stroke="#EAEAEA" stroke-width="1.6"/>
    <circle cx="0" cy="0" r="5" fill="#EAEAEA"/>
  </g>
</svg>