<svg xmlns="http://www.w3.org/2000/svg" viewBox="0 0 460 600" font-family="Segoe UI, Arial, sans-serif">
  <style>
    text { fill:#EAEAEA; }
    .out { fill:none; stroke:#EAEAEA; stroke-width:1.6; }
    .fillb { fill:#6FB7E0; opacity:0.2; }
    .fillu { fill:#E8B65A; opacity:0.22; }
    .filld { fill:#86C98B; opacity:0.22; }
    .cable { fill:none; stroke:#E58F8F; stroke-width:1.8; }
    .tower { fill:none; stroke:#9AA0A6; stroke-width:1.5; }
    .lbl { font-size:14px; text-anchor:middle; }
    .sub { font-size:13px; text-anchor:middle; }
    .lblc { font-size:13px; text-anchor:middle; fill:#E58F8F; }
  </style>

  <!-- ===== ROW 1: generate and step up ===== -->
  <line data-step="1" class="out" x1="0" y1="250" x2="460" y2="250" stroke="#9AA0A6"/>

  <!-- power station -->
  <rect data-step="2" class="out fillb" x="20" y="170" width="90" height="80"/>
  <rect data-step="2" class="out" x="20" y="170" width="90" height="80"/>
  <rect data-step="2" class="out fillb" x="34" y="140" width="16" height="30"/>
  <rect data-step="2" class="out fillb" x="60" y="130" width="16" height="40"/>
  <text data-step="2" class="lbl" x="65" y="272">power station</text>
  <text data-step="2" class="sub" x="75" y="290" fill="#9AA0A6">generates at lower V</text>

  <!-- step-up transformer -->
  <rect data-step="3" class="out fillu" x="180" y="185" width="55" height="55"/>
  <rect data-step="3" class="out" x="180" y="185" width="55" height="55"/>
  <text data-step="3" x="207" y="217" font-size="16" text-anchor="middle" fill="#E8B65A">&#8593;</text>
  <text data-step="3" class="lbl" x="207" y="272" fill="#E8B65A">step-up</text>
  <text data-step="3" class="sub" x="207" y="290">V increased</text>
  <line data-step="3" class="out" x1="110" y1="212" x2="180" y2="212"/>

  <!-- pylon 1 -->
  <g data-step="4" class="tower">
    <path d="M262,240 L274,110 L286,240 M262,240 L286,240 M266,200 L282,200 M264,175 L284,175 M262,150 L286,150"/>
    <line x1="254" y1="118" x2="294" y2="118"/>
    <line x1="250" y1="132" x2="298" y2="132"/>
  </g>

  <!-- cables (high voltage) -->
  <path data-step="5" class="cable" d="M235,200 Q250,158 252,130"/>
  <path data-step="5" class="cable" d="M298,130 Q380,170 460,140"/>
  <text data-step="5" class="lblc" x="300" y="60">high-voltage transmission</text>
  <text data-step="5" class="lblc" x="300" y="80">low current &#8594; small power loss (P = I&#178;R)</text>

  <!-- ===== ROW 2: step down and deliver ===== -->
  <line data-step="6" class="out" x1="0" y1="530" x2="460" y2="530" stroke="#9AA0A6"/>

  <!-- cable arriving from row 1 -->
  <path data-step="7" class="cable" d="M0,395 Q40,430 66,400"/>

  <!-- pylon 2 -->
  <g data-step="8" class="tower">
    <path d="M72,520 L84,390 L96,520 M72,520 L96,520 M76,480 L92,480 M74,455 L94,455 M72,430 L96,430"/>
    <line x1="64" y1="398" x2="104" y2="398"/>
    <line x1="60" y1="412" x2="108" y2="412"/>
  </g>

  <!-- cable to step-down transformer -->
  <path data-step="9" class="cable" d="M108,410 Q180,455 237,465"/>

  <!-- step-down transformer -->
  <rect data-step="9" class="out filld" x="210" y="465" width="55" height="55"/>
  <rect data-step="9" class="out" x="210" y="465" width="55" height="55"/>
  <text data-step="9" x="237" y="497" font-size="16" text-anchor="middle" fill="#86C98B">&#8595;</text>
  <text data-step="9" class="lbl" x="237" y="552" fill="#86C98B">step-down</text>
  <text data-step="9" class="sub" x="237" y="570">V decreased</text>

  <!-- homes -->
  <line data-step="9" class="out" x1="265" y1="492" x2="295" y2="492"/>
  <rect data-step="9" class="out filld" x="295" y="480" width="45" height="50"/>
  <rect data-step="9" class="out" x="295" y="480" width="45" height="50"/>
  <path data-step="9" class="out filld" d="M293,480 L317,458 L342,480 Z"/>
  <path data-step="9" class="out" d="M293,480 L317,458 L342,480 Z"/>
  <text data-step="9" class="lbl" x="330" y="552">homes</text>
  <text data-step="9" class="sub" x="330" y="570" fill="#9AA0A6">240 V</text>
</svg>
