<svg xmlns="http://www.w3.org/2000/svg" viewBox="0 0 560 320" font-family="Segoe UI, Arial, sans-serif">
  <defs>
    <marker id="ah" markerWidth="9" markerHeight="9" refX="6.5" refY="3" orient="auto">
      <path d="M0,0 L7,3 L0,6 Z" fill="#EAEAEA"/>
    </marker>
  </defs>
  <style>
    text { fill:#EAEAEA; }
    .fl { stroke:#EAEAEA; stroke-width:1.6; fill:none; }
    .pos { fill:#E58F8F; opacity:0.18; stroke:#E58F8F; stroke-width:1.8; }
    .neg { fill:#6FB7E0; opacity:0.18; stroke:#6FB7E0; stroke-width:1.8; }
    .sym { font-size:22px; text-anchor:middle; }
  </style>
  <text x="150" y="30" text-anchor="middle" font-size="13">Isolated positive charge</text>
  <line class="fl" x1="172.0" y1="175.0" x2="245.0" y2="175.0" marker-end="url(#ah)"/>
  <line class="fl" x1="169.1" y1="186.0" x2="232.3" y2="222.5" marker-end="url(#ah)"/>
  <line class="fl" x1="161.0" y1="194.1" x2="197.5" y2="257.3" marker-end="url(#ah)"/>
  <line class="fl" x1="150.0" y1="197.0" x2="150.0" y2="270.0" marker-end="url(#ah)"/>
  <line class="fl" x1="139.0" y1="194.1" x2="102.5" y2="257.3" marker-end="url(#ah)"/>
  <line class="fl" x1="130.9" y1="186.0" x2="67.7" y2="222.5" marker-end="url(#ah)"/>
  <line class="fl" x1="128.0" y1="175.0" x2="55.0" y2="175.0" marker-end="url(#ah)"/>
  <line class="fl" x1="130.9" y1="164.0" x2="67.7" y2="127.5" marker-end="url(#ah)"/>
  <line class="fl" x1="139.0" y1="155.9" x2="102.5" y2="92.7" marker-end="url(#ah)"/>
  <line class="fl" x1="150.0" y1="153.0" x2="150.0" y2="80.0" marker-end="url(#ah)"/>
  <line class="fl" x1="161.0" y1="155.9" x2="197.5" y2="92.7" marker-end="url(#ah)"/>
  <line class="fl" x1="169.1" y1="164.0" x2="232.3" y2="127.5" marker-end="url(#ah)"/>
  <circle cx="150" cy="175" r="22" class="pos"/>
  <text x="150" y="183" class="sym" fill="#E58F8F">+</text>
  <text x="410" y="30" text-anchor="middle" font-size="13">Isolated negative charge</text>
  <line class="fl" x1="505.0" y1="175.0" x2="432.0" y2="175.0" marker-end="url(#ah)"/>
  <line class="fl" x1="492.3" y1="222.5" x2="429.1" y2="186.0" marker-end="url(#ah)"/>
  <line class="fl" x1="457.5" y1="257.3" x2="421.0" y2="194.1" marker-end="url(#ah)"/>
  <line class="fl" x1="410.0" y1="270.0" x2="410.0" y2="197.0" marker-end="url(#ah)"/>
  <line class="fl" x1="362.5" y1="257.3" x2="399.0" y2="194.1" marker-end="url(#ah)"/>
  <line class="fl" x1="327.7" y1="222.5" x2="390.9" y2="186.0" marker-end="url(#ah)"/>
  <line class="fl" x1="315.0" y1="175.0" x2="388.0" y2="175.0" marker-end="url(#ah)"/>
  <line class="fl" x1="327.7" y1="127.5" x2="390.9" y2="164.0" marker-end="url(#ah)"/>
  <line class="fl" x1="362.5" y1="92.7" x2="399.0" y2="155.9" marker-end="url(#ah)"/>
  <line class="fl" x1="410.0" y1="80.0" x2="410.0" y2="153.0" marker-end="url(#ah)"/>
  <line class="fl" x1="457.5" y1="92.7" x2="421.0" y2="155.9" marker-end="url(#ah)"/>
  <line class="fl" x1="492.3" y1="127.5" x2="429.1" y2="164.0" marker-end="url(#ah)"/>
  <circle cx="410" cy="175" r="22" class="neg"/>
  <text x="410" y="183" class="sym" fill="#6FB7E0">-</text>
  <text x="150" y="305" text-anchor="middle" font-size="11" fill="#9AA0A6">field lines point outward</text>
  <text x="410" y="305" text-anchor="middle" font-size="11" fill="#9AA0A6">field lines point inward</text>
</svg>
