<svg xmlns="http://www.w3.org/2000/svg" viewBox="0 0 640 320" font-family="Segoe UI, Arial, sans-serif">
  <style>
    text { fill:#EAEAEA; }
    .magN { fill:#E58F8F; opacity:0.30; stroke:#EAEAEA; stroke-width:1.6; }
    .magS { fill:#6FB7E0; opacity:0.30; stroke:#EAEAEA; stroke-width:1.6; }
    .pole { font-size:15px; font-weight:bold; fill:#EAEAEA; }
    .comp { fill:none; stroke:#9AA0A6; stroke-width:1.3; }
    .needle { stroke:#EAEAEA; stroke-width:2; }
    .nhead { fill:#E58F8F; }
    .lbl { fill:#E8B65A; font-size:12.5px; }
  </style>

  <!-- compasses around the magnet; red arrow tip = north-seeking pole -->
  <!-- 1 leftmost: 180 -->
  <g transform="translate(191,225) rotate(180)"><circle class="comp" r="16"/><line class="needle" x1="-12" y1="0" x2="12" y2="0"/><polygon class="nhead" points="8,-4 8,4 16,0"/></g>
  <!-- 2 upper-left: 225 -->
  <g transform="translate(210,152) rotate(225)"><circle class="comp" r="16"/><line class="needle" x1="-12" y1="0" x2="12" y2="0"/><polygon class="nhead" points="8,-4 8,4 16,0"/></g>
  <!-- 3 top-left: 300 -->
  <g transform="translate(259,113) rotate(300)"><circle class="comp" r="16"/><line class="needle" x1="-12" y1="0" x2="12" y2="0"/><polygon class="nhead" points="8,-4 8,4 16,0"/></g>
  <!-- 4 top: 0 -->
  <g transform="translate(300,105) rotate(0)"><circle class="comp" r="16"/><line class="needle" x1="-12" y1="0" x2="12" y2="0"/><polygon class="nhead" points="8,-4 8,4 16,0"/></g>
  <!-- 5 top-right: 60 -->
  <g transform="translate(341,113) rotate(60)"><circle class="comp" r="16"/><line class="needle" x1="-12" y1="0" x2="12" y2="0"/><polygon class="nhead" points="8,-4 8,4 16,0"/></g>
  <!-- 6 upper-right: 135 -->
  <g transform="translate(390,152) rotate(135)"><circle class="comp" r="16"/><line class="needle" x1="-12" y1="0" x2="12" y2="0"/><polygon class="nhead" points="8,-4 8,4 16,0"/></g>
  <!-- 7 rightmost: 180 -->
  <g transform="translate(410,225) rotate(180)"><circle class="comp" r="16"/><line class="needle" x1="-12" y1="0" x2="12" y2="0"/><polygon class="nhead" points="8,-4 8,4 16,0"/></g>

  <!-- magnet -->
  <rect class="magN" x="220" y="200" width="80" height="30" rx="2"/>
  <rect class="magS" x="300" y="200" width="80" height="30" rx="2"/>
  <text class="pole" x="234" y="221">N</text>
  <text class="pole" x="360" y="221">S</text>

  <text x="320" y="35" text-anchor="middle" class="lbl">Each compass needle lines up with the field: its</text>
  <text x="320" y="52" text-anchor="middle" class="lbl">red (north-seeking) tip points from N toward S.</text>
  <text x="470" y="250" class="lbl">move the compass step</text>
  <text x="470" y="266" class="lbl">by step and mark each</text>
  <text x="470" y="282" class="lbl">arrow to trace a field line</text>
</svg>
