<svg xmlns="http://www.w3.org/2000/svg" viewBox="0 0 460 360" font-family="Segoe UI, Arial, sans-serif">
  <style>
    text { fill:#EAEAEA; }
    .rule { fill:none; stroke:#EAEAEA; stroke-width:2; }
    .tick { stroke:#EAEAEA; stroke-width:1.2; }
    .sight { stroke:#9AA0A6; stroke-width:1.4; stroke-dasharray:5 4; fill:none; }
    .good { fill:#86C98B; }
    .bad { fill:#E58F8F; }
  </style>
  <!-- eye positions -->
  <text x="130" y="40" text-anchor="middle" font-size="22" class="bad">&#10007;</text>
  <text x="230" y="34" text-anchor="middle" font-size="22" class="good">&#10003;</text>
  <text x="330" y="40" text-anchor="middle" font-size="22" class="bad">&#10007;</text>
  <!-- lines of sight converge at the 2 cm mark (x=230,y=250) -->
  <path class="sight" d="M130,48 L230,246"/>
  <path class="sight" d="M230,44 L230,246"/>
  <path class="sight" d="M330,48 L230,246"/>
  <text x="158" y="150" text-anchor="end" font-size="14">line of sight</text>
  <!-- ruler -->
  <rect class="rule" x="70" y="250" width="320" height="34" rx="3"/>
  <!-- ticks -->
  <g class="tick">
    <line x1="100" y1="250" x2="100" y2="270"/>
    <line x1="165" y1="250" x2="165" y2="270"/>
    <line x1="230" y1="250" x2="230" y2="272"/>
    <line x1="295" y1="250" x2="295" y2="270"/>
    <line x1="360" y1="250" x2="360" y2="270"/>
  </g>
  <g font-size="14" text-anchor="middle">
    <text x="100" y="302">0</text>
    <text x="165" y="302">1</text>
    <text x="230" y="302">2</text>
    <text x="295" y="302">3</text>
    <text x="360" y="302">4</text>
  </g>
  <text x="400" y="272" font-size="14">cm</text>
  <!-- legend -->
  <text x="230" y="330" text-anchor="middle" font-size="14"><tspan class="good">&#10003;</tspan> correct (directly above)</text>
  <text x="230" y="352" text-anchor="middle" font-size="14"><tspan class="bad">&#10007;</tspan> incorrect (at an angle)</text>
</svg>
