<svg xmlns="http://www.w3.org/2000/svg" viewBox="0 0 420 300" font-family="Segoe UI, Arial, sans-serif">
  <style>
    text { fill:#EAEAEA; font-size:12px; }
    .axis { stroke:#EAEAEA; stroke-width:1.6; }
    .tick { stroke:#EAEAEA; stroke-width:1.1; }
    .num { fill:#9AA0A6; font-size:11px; }
    .pt { stroke:#EAEAEA; stroke-width:1.8; fill:none; }
    .fit { stroke:#6FB7E0; stroke-width:2.2; fill:none; }
    .grad { stroke:#E8B65A; stroke-width:2; fill:none; }
    .gradtx { fill:#E8B65A; font-size:12px; }
    .ax { fill:#EAEAEA; font-size:12px; }
  </style>
  <defs><marker id="ax9" markerWidth="9" markerHeight="9" refX="7" refY="3" orient="auto"><path d="M0,0 L7,3 L0,6 Z" fill="#EAEAEA"/></marker><marker id="ax9s" markerWidth="9" markerHeight="9" refX="0" refY="3" orient="auto"><path d="M7,0 L0,3 L7,6 Z" fill="#EAEAEA"/></marker></defs>
  <line class="axis" x1="70" y1="255" x2="70" y2="42" marker-end="url(#ax9)"/>
  <line class="axis" x1="70" y1="255" x2="390" y2="255" marker-end="url(#ax9)"/>
  <text class="ax" x="34" y="32">T&#178; / s&#178;</text>
  <text class="ax" x="230" y="290" text-anchor="middle">l / m</text>
  <line class="tick" x1="140" y1="255" x2="140" y2="261"/>
  <text class="num" x="140" y="273" text-anchor="middle">0.2</text>
  <line class="tick" x1="210" y1="255" x2="210" y2="261"/>
  <text class="num" x="210" y="273" text-anchor="middle">0.4</text>
  <line class="tick" x1="280" y1="255" x2="280" y2="261"/>
  <text class="num" x="280" y="273" text-anchor="middle">0.6</text>
  <line class="tick" x1="350" y1="255" x2="350" y2="261"/>
  <text class="num" x="350" y="273" text-anchor="middle">0.8</text>
  <line class="tick" x1="64" y1="209" x2="70" y2="209"/>
  <text class="num" x="58" y="213" text-anchor="end">0.4</text>
  <line class="tick" x1="64" y1="163" x2="70" y2="163"/>
  <text class="num" x="58" y="167" text-anchor="end">0.8</text>
  <line class="tick" x1="64" y1="117" x2="70" y2="117"/>
  <text class="num" x="58" y="121" text-anchor="end">1.2</text>
  <line class="tick" x1="64" y1="71" x2="70" y2="71"/>
  <text class="num" x="58" y="75" text-anchor="end">1.6</text>
  <path class="fit" d="M70,255 L355,70"/>
  <path class="pt" d="M103,221.3 L113,231.3 M103,231.3 L113,221.3"/>
  <path class="pt" d="M145,203.1 L155,213.1 M145,213.1 L155,203.1"/>
  <path class="pt" d="M190,165.9 L200,175.9 M190,175.9 L200,165.9"/>
  <path class="pt" d="M235,143.7 L245,153.7 M235,153.7 L245,143.7"/>
  <path class="pt" d="M280,105.5 L290,115.5 M280,115.5 L290,105.5"/>
  <path class="pt" d="M325,83.3 L335,93.3 M325,93.3 L335,83.3"/>
  <path class="grad" d="M170,190.1 L300,190.1 L300,105.7"/>
  <text class="gradtx" x="235" y="208.1" text-anchor="middle">&#916;l</text>
  <text class="gradtx" x="308" y="151.9">&#916;T&#178;</text>
  <text class="gradtx" x="120" y="60">gradient = 4&#960;&#178; / g</text>
  <text class="num" x="62" y="252" text-anchor="end">O</text>
</svg>
