<svg xmlns="http://www.w3.org/2000/svg" viewBox="0 0 400 400" font-family="Segoe UI, Arial, sans-serif">
  <style>
    text { fill:#EAEAEA; }
    .rule { fill:none; stroke:#EAEAEA; stroke-width:2; }
    .tick { stroke:#EAEAEA; stroke-width:1.2; }
    .obj { fill:#6FB7E0; opacity:0.35; stroke:#6FB7E0; stroke-width:1.5; }
    .amber { fill:#E8B65A; }
  </style>
  <!-- TOP: positive zero error (object starts after 0) -->
  <g>
    <rect class="obj" x="125" y="40" width="120" height="26"/>
    <rect class="rule" x="90" y="70" width="220" height="34" rx="3"/>
    <g class="tick">
      <line x1="110" y1="70" x2="110" y2="88"/>
      <line x1="150" y1="70" x2="150" y2="88"/>
      <line x1="190" y1="70" x2="190" y2="88"/>
      <line x1="230" y1="70" x2="230" y2="88"/>
      <line x1="270" y1="70" x2="270" y2="88"/>
    </g>
    <g font-size="14" text-anchor="middle">
      <text x="110" y="120">0</text><text x="150" y="120">1</text><text x="190" y="120">2</text><text x="230" y="120">3</text><text x="270" y="120">4</text>
    </g>
    <text x="320" y="92" font-size="13">cm</text>
    <text x="200" y="150" text-anchor="middle" font-size="15" class="amber">positive zero error</text>
    <text x="200" y="170" text-anchor="middle" font-size="13">object edge starts after 0 &#8594; reads too large</text>
  </g>
  <!-- BOTTOM: negative zero error (object before 0) -->
  <g>
    <rect class="obj" x="82" y="240" width="120" height="26"/>
    <rect class="rule" x="90" y="270" width="220" height="34" rx="3"/>
    <g class="tick">
      <line x1="110" y1="270" x2="110" y2="288"/>
      <line x1="150" y1="270" x2="150" y2="288"/>
      <line x1="190" y1="270" x2="190" y2="288"/>
      <line x1="230" y1="270" x2="230" y2="288"/>
      <line x1="270" y1="270" x2="270" y2="288"/>
    </g>
    <g font-size="14" text-anchor="middle">
      <text x="110" y="320">0</text><text x="150" y="320">1</text><text x="190" y="320">2</text><text x="230" y="320">3</text><text x="270" y="320">4</text>
    </g>
    <text x="320" y="292" font-size="13">cm</text>
    <text x="200" y="350" text-anchor="middle" font-size="15" class="amber">negative zero error</text>
    <text x="200" y="370" text-anchor="middle" font-size="13">object edge starts before 0 &#8594; reads too small</text>
  </g>
</svg>
