<svg xmlns="http://www.w3.org/2000/svg" viewBox="0 0 620 420" font-family="Segoe UI, Arial, sans-serif">
  <style>
    text { fill:#EAEAEA; }
    .lead { stroke:#9AA0A6; stroke-width:1.2; fill:none; }
    .planet { fill:#6FB7E0; opacity:0.28; stroke:#6FB7E0; stroke-width:1.8; }
    .field { stroke:#9AA0A6; stroke-width:1.3; fill:none; }
    .force { stroke:#86C98B; stroke-width:2.4; fill:none; }
  </style>
  <defs>
    <marker id="ah-f" markerWidth="8" markerHeight="8" refX="6" refY="3.5" orient="auto">
      <path d="M0,0 L7,3.5 L0,7 z" fill="#9AA0A6"/>
    </marker>
    <marker id="ah-y" markerWidth="9" markerHeight="9" refX="6.5" refY="4" orient="auto">
      <path d="M0,0 L8,4 L0,8 z" fill="#86C98B"/>
    </marker>
  </defs>
  <!-- radial field lines pointing inward -->
    <path class="field" d="M450.0,210.0 L386.0,210.0" marker-end="url(#ah-f)"/>
    <path class="field" d="M444.9,248.8 L383.1,232.3" marker-end="url(#ah-f)"/>
    <path class="field" d="M429.9,285.0 L374.5,253.0" marker-end="url(#ah-f)"/>
    <path class="field" d="M406.1,316.1 L360.8,270.8" marker-end="url(#ah-f)"/>
    <path class="field" d="M375.0,339.9 L343.0,284.5" marker-end="url(#ah-f)"/>
    <path class="field" d="M338.8,354.9 L322.3,293.1" marker-end="url(#ah-f)"/>
    <path class="field" d="M300.0,360.0 L300.0,296.0" marker-end="url(#ah-f)"/>
    <path class="field" d="M261.2,354.9 L277.7,293.1" marker-end="url(#ah-f)"/>
    <path class="field" d="M225.0,339.9 L257.0,284.5" marker-end="url(#ah-f)"/>
    <path class="field" d="M193.9,316.1 L239.2,270.8" marker-end="url(#ah-f)"/>
    <path class="field" d="M170.1,285.0 L225.5,253.0" marker-end="url(#ah-f)"/>
    <path class="field" d="M155.1,248.8 L216.9,232.3" marker-end="url(#ah-f)"/>
    <path class="field" d="M150.0,210.0 L214.0,210.0" marker-end="url(#ah-f)"/>
    <path class="field" d="M155.1,171.2 L216.9,187.7" marker-end="url(#ah-f)"/>
    <path class="field" d="M170.1,135.0 L225.5,167.0" marker-end="url(#ah-f)"/>
    <path class="field" d="M193.9,103.9 L239.2,149.2" marker-end="url(#ah-f)"/>
    <path class="field" d="M225.0,80.1 L257.0,135.5" marker-end="url(#ah-f)"/>
    <path class="field" d="M261.2,65.1 L277.7,126.9" marker-end="url(#ah-f)"/>
    <path class="field" d="M300.0,60.0 L300.0,124.0" marker-end="url(#ah-f)"/>
    <path class="field" d="M338.8,65.1 L322.3,126.9" marker-end="url(#ah-f)"/>
    <path class="field" d="M375.0,80.1 L343.0,135.5" marker-end="url(#ah-f)"/>
    <path class="field" d="M406.1,103.9 L360.8,149.2" marker-end="url(#ah-f)"/>
    <path class="field" d="M429.9,135.0 L374.5,167.0" marker-end="url(#ah-f)"/>
    <path class="field" d="M444.9,171.2 L383.1,187.7" marker-end="url(#ah-f)"/>
  <!-- object X -->
  <circle class="planet" cx="300" cy="210" r="78"/>
  <text x="300" y="215" text-anchor="middle" font-size="15">object X</text>
  <!-- object Y placed in the field -->
  <circle cx="392" cy="150" r="8" fill="#E8B65A" stroke="#E8B65A"/>
  <!-- force on Y toward X -->
  <path class="force" d="M382,158 L344,183" marker-end="url(#ah-y)"/>
  <!-- labels -->
  <path class="lead" d="M400,146 L470,120"/>
  <text x="475" y="124" font-size="13" fill="#E8B65A">object Y</text>
  <path class="lead" d="M360,175 L470,175"/>
  <text x="475" y="171" font-size="13" fill="#86C98B">gravitational</text>
  <text x="475" y="187" font-size="13" fill="#86C98B">force</text>
  <path class="lead" d="M158,240 L95,270"/>
  <text x="90" y="266" text-anchor="end" font-size="13">gravitational field</text>
  <text x="90" y="282" text-anchor="end" font-size="13">of object X</text>
  <!-- caption -->
  <text x="310" y="405" text-anchor="middle" font-size="12.5" fill="#9AA0A6">Object X exerts a gravitational force on object Y placed in its field.</text>
</svg>
