<svg xmlns="http://www.w3.org/2000/svg" viewBox="30 35 470 195" font-family="Segoe UI, Arial, sans-serif">
  <style>
    text { fill:#EAEAEA; }
    .wire { fill:none; stroke:#EAEAEA; stroke-width:2; }
    .res { fill:none; stroke:#EAEAEA; stroke-width:2; }
    .cellL { stroke:#EAEAEA; stroke-width:2; }
    .cellS { stroke:#EAEAEA; stroke-width:5; }
    .meter { fill:none; stroke:#EAEAEA; stroke-width:2; }
    .lbl { fill:#6FB7E0; font-style:italic; }
    .therm { stroke:#E8B65A; stroke-width:2; fill:none; }
  </style>
  <!-- supply left (cell on vertical rail: horizontal plates) -->
  <text x="55" y="132" text-anchor="middle" font-size="14" class="lbl">V<tspan font-size="10">in</tspan></text>
  <path class="wire" d="M84,55 L84,116"/>
  <path class="wire" d="M84,132 L84,210"/>
  <line class="cellL" x1="66" y1="118" x2="102" y2="118"/>
  <line class="cellS" x1="76" y1="130" x2="92" y2="130"/>
  <path class="wire" d="M84,55 L340,55"/>
  <path class="wire" d="M84,210 L340,210"/>
  <!-- thermistor top (rectangle with diagonal line) -->
  <rect class="res" x="326" y="65" width="28" height="50"/>
  <line class="therm" x1="322" y1="118" x2="358" y2="62"/>
  <text x="368" y="94" font-size="14" fill="#E8B65A">thermistor</text>
  <path class="wire" d="M340,55 L340,65"/>
  <!-- R bottom -->
  <rect class="res" x="326" y="150" width="28" height="50"/>
  <text x="315" y="180" text-anchor="end" font-size="14" class="lbl">R</text>
  <path class="wire" d="M340,115 L340,150"/>
  <path class="wire" d="M340,200 L340,210"/>
  <!-- output tap across R -->
  <path class="wire" d="M340,132 L400,132"/>
  <circle cx="340" cy="132" r="3" fill="#EAEAEA"/>
  <circle class="meter" cx="420" cy="132" r="15"/>
  <text x="420" y="137" text-anchor="middle" font-size="12">V</text>
  <path class="wire" d="M435,132 L460,132 L460,210 L340,210"/>
  <text x="452" y="172" text-anchor="end" font-size="14" class="lbl">V<tspan font-size="10">out</tspan></text>
</svg>
