<svg xmlns="http://www.w3.org/2000/svg" viewBox="0 0 420 296" font-family="Segoe UI, Arial, sans-serif">
  <style>
    text { fill:#EAEAEA; font-size:12px; }
    .axis { stroke:#EAEAEA; stroke-width:1.6; }
    .tick { stroke:#EAEAEA; stroke-width:1.1; }
    .num { fill:#9AA0A6; font-size:11px; }
    .pt { stroke:#EAEAEA; stroke-width:1.8; fill:none; }
    .fit { stroke:#6FB7E0; stroke-width:2.2; fill:none; }
    .fittx { fill:#6FB7E0; font-size:12px; }
    .lead { stroke:#9AA0A6; stroke-width:1.1; fill:none; }
    .ax { fill:#EAEAEA; font-size:12px; }
  </style>
  <defs><marker id="ax8" markerWidth="9" markerHeight="9" refX="7" refY="3" orient="auto"><path d="M0,0 L7,3 L0,6 Z" fill="#EAEAEA"/></marker><marker id="ax8s" markerWidth="9" markerHeight="9" refX="0" refY="3" orient="auto"><path d="M7,0 L0,3 L7,6 Z" fill="#EAEAEA"/></marker></defs>
  <line data-step="1" class="axis" x1="65" y1="250" x2="65" y2="40" marker-end="url(#ax8)"/>
  <line data-step="1" class="axis" x1="65" y1="250" x2="390" y2="250" marker-end="url(#ax8)"/>
  <text data-step="3" class="ax" x="30" y="32">d / cm</text>
  <text data-step="3" class="ax" x="230" y="285" text-anchor="middle">t&#178; / s&#178;</text>
  <line data-step="1" class="tick" x1="125" y1="250" x2="125" y2="256"/>
  <text data-step="3" class="num" x="125" y="268" text-anchor="middle">1</text>
  <line data-step="1" class="tick" x1="185" y1="250" x2="185" y2="256"/>
  <text data-step="3" class="num" x="185" y="268" text-anchor="middle">2</text>
  <line data-step="1" class="tick" x1="245" y1="250" x2="245" y2="256"/>
  <text data-step="3" class="num" x="245" y="268" text-anchor="middle">3</text>
  <line data-step="1" class="tick" x1="305" y1="250" x2="305" y2="256"/>
  <text data-step="3" class="num" x="305" y="268" text-anchor="middle">4</text>
  <line data-step="1" class="tick" x1="365" y1="250" x2="365" y2="256"/>
  <text data-step="3" class="num" x="365" y="268" text-anchor="middle">5</text>
  <line data-step="1" class="tick" x1="59" y1="205" x2="65" y2="205"/>
  <text data-step="4" class="num" x="53" y="209" text-anchor="end">20</text>
  <line data-step="1" class="tick" x1="59" y1="160" x2="65" y2="160"/>
  <text data-step="4" class="num" x="53" y="164" text-anchor="end">40</text>
  <line data-step="1" class="tick" x1="59" y1="115" x2="65" y2="115"/>
  <text data-step="4" class="num" x="53" y="119" text-anchor="end">60</text>
  <line data-step="2" class="tick" x1="59" y1="70" x2="65" y2="70"/>
  <text data-step="4" class="num" x="53" y="74" text-anchor="end">80</text>
  <path data-step="2" class="fit" d="M65,250 L352,68"/>
  <path data-step="2" class="pt" d="M105,220.5 L115,230.5 M105,230.5 L115,220.5"/>
  <path data-step="2" class="pt" d="M155,179.8 L165,189.8 M155,189.8 L165,179.8"/>
  <path data-step="2" class="pt" d="M205,156.1 L215,166.1 M205,166.1 L215,156.1"/>
  <path data-step="2" class="pt" d="M255,117.4 L265,127.4 M255,127.4 L265,117.4"/>
  <path data-step="2" class="pt" d="M305,94.7 L315,104.7 M305,104.7 L315,94.7"/>
  <path data-step="2" class="pt" d="M340,65.5 L350,75.5 M340,75.5 L350,65.5"/>
  <text data-step="4" class="fittx" x="250" y="60">best-fit line</text>
  <path data-step="2" class="lead" d="M330,66 L344,80"/>
  <text data-step="4" x="250" y="92">d = &#189; a t&#178;</text>
  <text data-step="4" class="num" x="57" y="247" text-anchor="end">O</text>
</svg>
