<svg xmlns="http://www.w3.org/2000/svg" viewBox="0 0 480 240" font-family="Segoe UI, Arial, sans-serif">
  <style>
    text { fill:#EAEAEA; }
    .arm { stroke:#EAEAEA; stroke-width:2.4; fill:none; }
    .wheel { fill:#E8B65A; opacity:0.3; stroke:#E8B65A; stroke-width:1.8; }
    .tray { fill:#6FB7E0; opacity:0.16; stroke:#EAEAEA; stroke-width:1.4; }
    .force { stroke:#E58F8F; stroke-width:2.4; fill:none; }
    .effort { stroke:#86C98B; stroke-width:2.4; fill:none; }
    .cg { fill:#E8B65A; stroke:#E8B65A; }
    .dim { stroke:#9AA0A6; stroke-width:1.3; fill:none; }
    .lbl { font-size:12px; }
  </style>
  <!-- wheel = pivot at left -->
  <circle class="wheel" cx="90" cy="150" r="20"/>
  <circle cx="90" cy="150" r="3" fill="#E8B65A"/>
  <text class="lbl" x="70" y="185" text-anchor="middle">pivot (wheel)</text>
  <!-- arm/handle -->
  <line class="arm" x1="90" y1="150" x2="410" y2="120"/>
  <!-- tray with load -->
  <path class="tray" d="M120,140 L235,130 L225,95 L150,100 Z"/>
  <!-- centre of gravity of load -->
  <circle class="cg" cx="180" cy="128" r="4"/>
  <text class="lbl" x="180" y="120" text-anchor="middle" fill="#E8B65A">G</text>
  <!-- load weight down -->
  <line class="force" x1="180" y1="128" x2="180" y2="185"/>
  <path class="force" d="M180,185 l-5,-10 M180,185 l5,-10"/>
  <text class="lbl" x="180" y="202" text-anchor="middle" fill="#E58F8F">800 N</text>
  <!-- effort up at handle -->
  <line class="effort" x1="405" y1="121" x2="405" y2="70"/>
  <path class="effort" d="M405,70 l-5,10 M405,70 l5,10"/>
  <text class="lbl" x="405" y="62" text-anchor="middle" fill="#86C98B">effort, M</text>
  <!-- distances -->
  <line class="dim" x1="90" y1="215" x2="180" y2="215"/>
  <path class="dim" d="M90,215 l8,-4 M90,215 l8,4"/>
  <path class="dim" d="M180,215 l-8,-4 M180,215 l-8,4"/>
  <text class="lbl" x="135" y="230" text-anchor="middle">0.80 m</text>
  <line class="dim" x1="90" y1="215" x2="405" y2="215" stroke-dasharray="0"/>
  <text class="lbl" x="300" y="230" text-anchor="middle">2.0 m to handle</text>
  <line class="dim" x1="90" y1="170" x2="90" y2="215" stroke-dasharray="3 3"/>
  <line class="dim" x1="180" y1="130" x2="180" y2="215" stroke-dasharray="3 3"/>
  <line class="dim" x1="405" y1="121" x2="405" y2="215" stroke-dasharray="3 3"/>
</svg>
