<svg xmlns="http://www.w3.org/2000/svg" viewBox="0 0 420 362" font-family="Segoe UI, Arial, sans-serif">
  <style>
    text { fill:#EAEAEA; font-size:13px; }
    .rule { fill:#EAEAEA; fill-opacity:0.08; stroke:#EAEAEA; stroke-width:1.8; }
    .part { fill:#EAEAEA; fill-opacity:0.10; stroke:#EAEAEA; stroke-width:1.8; }
    .frame { fill:none; stroke:#EAEAEA; stroke-width:2.4; }
    .tick { stroke:#EAEAEA; stroke-width:1.1; }
    .num { fill:#9AA0A6; font-size:11px; }
    .err { stroke:#E58F8F; stroke-width:2.2; fill:none; }
    .errtx { fill:#E58F8F; font-size:12px; }
    .guide { stroke:#9AA0A6; stroke-width:1.1; stroke-dasharray:4 3; fill:none; }
    .sub { fill:#9AA0A6; font-size:12px; }
    .lbl { fill:#EAEAEA; font-size:12px; }
    .hi { stroke:#E8B65A; stroke-width:2.2; fill:none; }
    .read { fill:#E8B65A; font-size:12px; }
    .good { fill:#86C98B; font-size:12px; }
  </style>
  <defs><marker id="rd5" markerWidth="9" markerHeight="9" refX="7" refY="3" orient="auto"><path d="M0,0 L7,3 L0,6 Z" fill="#E58F8F"/></marker><marker id="rd5s" markerWidth="9" markerHeight="9" refX="0" refY="3" orient="auto"><path d="M7,0 L0,3 L7,6 Z" fill="#E58F8F"/></marker></defs>
  <path class="rule" d="M42,60 L390,60 L390,102 L42,102 L50,91 L42,81 L52,70 Z"/>
  <line class="tick" x1="85" y1="60" x2="85" y2="76"/>
  <text class="num" x="85" y="92" text-anchor="middle">0</text>
  <line class="tick" x1="100" y1="60" x2="100" y2="70"/>
  <line class="tick" x1="115" y1="60" x2="115" y2="76"/>
  <text class="num" x="115" y="92" text-anchor="middle">1</text>
  <line class="tick" x1="130" y1="60" x2="130" y2="70"/>
  <line class="tick" x1="145" y1="60" x2="145" y2="76"/>
  <text class="num" x="145" y="92" text-anchor="middle">2</text>
  <line class="tick" x1="160" y1="60" x2="160" y2="70"/>
  <line class="tick" x1="175" y1="60" x2="175" y2="76"/>
  <text class="num" x="175" y="92" text-anchor="middle">3</text>
  <line class="tick" x1="190" y1="60" x2="190" y2="70"/>
  <line class="tick" x1="205" y1="60" x2="205" y2="76"/>
  <text class="num" x="205" y="92" text-anchor="middle">4</text>
  <line class="tick" x1="220" y1="60" x2="220" y2="70"/>
  <line class="tick" x1="235" y1="60" x2="235" y2="76"/>
  <text class="num" x="235" y="92" text-anchor="middle">5</text>
  <line class="tick" x1="250" y1="60" x2="250" y2="70"/>
  <line class="tick" x1="265" y1="60" x2="265" y2="76"/>
  <text class="num" x="265" y="92" text-anchor="middle">6</text>
  <line class="tick" x1="280" y1="60" x2="280" y2="70"/>
  <line class="tick" x1="295" y1="60" x2="295" y2="76"/>
  <text class="num" x="295" y="92" text-anchor="middle">7</text>
  <line class="tick" x1="310" y1="60" x2="310" y2="70"/>
  <line class="tick" x1="325" y1="60" x2="325" y2="76"/>
  <text class="num" x="325" y="92" text-anchor="middle">8</text>
  <line class="tick" x1="340" y1="60" x2="340" y2="70"/>
  <line class="tick" x1="355" y1="60" x2="355" y2="76"/>
  <text class="num" x="355" y="92" text-anchor="middle">9</text>
  <text class="lbl" x="360" y="48" text-anchor="middle">ruler A</text>
  <path class="guide" d="M42,102 L42,126"/>
  <path class="guide" d="M85,102 L85,126"/>
  <path class="err" d="M42,120 L85,120" marker-start="url(#rd5s)" marker-end="url(#rd5)"/>
  <text class="errtx" x="63" y="140" text-anchor="middle">worn end</text>
  <text class="errtx" x="180" y="140">zero mark set back, zero error e</text>
  <text class="sub" x="210" y="164" text-anchor="middle">every length comes out too big by e</text>
  <text class="sub" x="210" y="184" text-anchor="middle">systematic, so averaging cannot remove it</text>
  <text class="sub" x="150" y="222" text-anchor="middle">jaws closed</text>
  <path class="frame" d="M130,232 a46,46 0 0 0 0,80"/>
  <rect class="part" x="130" y="258" width="22" height="18"/>
  <rect class="part" x="152" y="258" width="28" height="18"/>
  <rect class="part" x="180" y="244" width="66" height="46" rx="4"/>
  <path class="frame" d="M186,267 L242,267"/>
  <rect class="part" x="246" y="238" width="48" height="58" rx="5"/>
  <line class="tick" x1="250" y1="291" x2="264" y2="291"/>
  <text class="num" x="268" y="295">0</text>
  <line class="tick" x1="250" y1="283" x2="259" y2="283"/>
  <line class="tick" x1="250" y1="275" x2="259" y2="275"/>
  <line class="tick" x1="250" y1="259" x2="259" y2="259"/>
  <line class="tick" x1="250" y1="251" x2="264" y2="251"/>
  <text class="num" x="268" y="255">5</text>
  <line class="tick" x1="250" y1="243" x2="259" y2="243"/>
  <path class="hi" d="M250,267 L266,267"/>
  <text class="read" x="270" y="271">3</text>
  <text class="read" x="300" y="256">reads 0.03 mm</text>
  <text class="read" x="300" y="274">not 0.00</text>
  <text class="good" x="210" y="348" text-anchor="middle">subtract the zero error from every reading</text>
</svg>
