<svg xmlns="http://www.w3.org/2000/svg" viewBox="0 0 520 200" font-family="Segoe UI, Arial, sans-serif">
  <style>
    text { fill:#EAEAEA; }
    .axis { stroke:#EAEAEA; stroke-width:1.6; fill:none; }
    .wave { stroke:#6FB7E0; stroke-width:2.2; fill:none; }
    .wave2 { stroke:#E8B65A; stroke-width:2.2; fill:none; stroke-dasharray:6 4; }
    .rest { stroke:#9AA0A6; stroke-width:1.2; stroke-dasharray:5 4; fill:none; }
    .guide { stroke:#9AA0A6; stroke-width:1; stroke-dasharray:3 3; fill:none; }
    .lead { stroke:#9AA0A6; stroke-width:1.2; fill:none; }
    .dim { stroke:#E8B65A; stroke-width:1.4; fill:none; }
    .lbl { fill:#E8B65A; font-size:13px; }
    .lblb { fill:#6FB7E0; font-size:13px; }
    .tick { stroke:#EAEAEA; stroke-width:1.2; }
    .sm { font-size:12px; }
  </style>

  <line x1="55" y1="105" x2="430" y2="105" class="rest"/>
  <path class="wave" d="M 70.00,105.00 L 72.00,100.61 L 74.00,96.27 L 76.00,92.02 L 78.00,87.92 L 80.00,84.00 L 82.00,80.31 L 84.00,76.90 L 86.00,73.79 L 88.00,71.02 L 90.00,68.63 L 92.00,66.63 L 94.00,65.06 L 96.00,63.92 L 98.00,63.23 L 100.00,63.00 L 102.00,63.23 L 104.00,63.92 L 106.00,65.06 L 108.00,66.63 L 110.00,68.63 L 112.00,71.02 L 114.00,73.79 L 116.00,76.90 L 118.00,80.31 L 120.00,84.00 L 122.00,87.92 L 124.00,92.02 L 126.00,96.27 L 128.00,100.61 L 130.00,105.00 L 132.00,109.39 L 134.00,113.73 L 136.00,117.98 L 138.00,122.08 L 140.00,126.00 L 142.00,129.69 L 144.00,133.10 L 146.00,136.21 L 148.00,138.98 L 150.00,141.37 L 152.00,143.37 L 154.00,144.94 L 156.00,146.08 L 158.00,146.77 L 160.00,147.00 L 162.00,146.77 L 164.00,146.08 L 166.00,144.94 L 168.00,143.37 L 170.00,141.37 L 172.00,138.98 L 174.00,136.21 L 176.00,133.10 L 178.00,129.69 L 180.00,126.00 L 182.00,122.08 L 184.00,117.98 L 186.00,113.73 L 188.00,109.39 L 190.00,105.00 L 192.00,100.61 L 194.00,96.27 L 196.00,92.02 L 198.00,87.92 L 200.00,84.00 L 202.00,80.31 L 204.00,76.90 L 206.00,73.79 L 208.00,71.02 L 210.00,68.63 L 212.00,66.63 L 214.00,65.06 L 216.00,63.92 L 218.00,63.23 L 220.00,63.00 L 222.00,63.23 L 224.00,63.92 L 226.00,65.06 L 228.00,66.63 L 230.00,68.63 L 232.00,71.02 L 234.00,73.79 L 236.00,76.90 L 238.00,80.31 L 240.00,84.00 L 242.00,87.92 L 244.00,92.02 L 246.00,96.27 L 248.00,100.61 L 250.00,105.00 L 252.00,109.39 L 254.00,113.73 L 256.00,117.98 L 258.00,122.08 L 260.00,126.00 L 262.00,129.69 L 264.00,133.10 L 266.00,136.21 L 268.00,138.98 L 270.00,141.37 L 272.00,143.37 L 274.00,144.94 L 276.00,146.08 L 278.00,146.77 L 280.00,147.00 L 282.00,146.77 L 284.00,146.08 L 286.00,144.94 L 288.00,143.37 L 290.00,141.37 L 292.00,138.98 L 294.00,136.21 L 296.00,133.10 L 298.00,129.69 L 300.00,126.00 L 302.00,122.08 L 304.00,117.98 L 306.00,113.73 L 308.00,109.39 L 310.00,105.00 L 312.00,100.61 L 314.00,96.27 L 316.00,92.02 L 318.00,87.92 L 320.00,84.00 L 322.00,80.31 L 324.00,76.90 L 326.00,73.79 L 328.00,71.02 L 330.00,68.63 L 332.00,66.63 L 334.00,65.06 L 336.00,63.92 L 338.00,63.23 L 340.00,63.00 L 342.00,63.23 L 344.00,63.92 L 346.00,65.06 L 348.00,66.63 L 350.00,68.63 L 352.00,71.02 L 354.00,73.79 L 356.00,76.90 L 358.00,80.31 L 360.00,84.00 L 362.00,87.92 L 364.00,92.02 L 366.00,96.27 L 368.00,100.61 L 370.00,105.00 L 372.00,109.39 L 374.00,113.73 L 376.00,117.98 L 378.00,122.08 L 380.00,126.00 L 382.00,129.69 L 384.00,133.10 L 386.00,136.21 L 388.00,138.98 L 390.00,141.37 L 392.00,143.37 L 394.00,144.94 L 396.00,146.08 L 398.00,146.77 L 400.00,147.00 L 402.00,146.77 L 404.00,146.08 L 406.00,144.94 L 408.00,143.37 L 410.00,141.37"/>
  <text x="438" y="109" font-size="12" fill="#9AA0A6">rest position</text>
  <text x="240" y="185" text-anchor="middle" class="lbl">waveform</text>
  <path class="lead" d="M240,175 L240,150"/>

</svg>
