<svg xmlns="http://www.w3.org/2000/svg" viewBox="0 0 520 320" font-family="Segoe UI, Arial, sans-serif">
  <style>
    text { fill:#EAEAEA; font-size:14px; }
    .metal { fill:#9AA0A6; opacity:0.35; stroke:#EAEAEA; stroke-width:1.2; }
    .box { fill:#E8B65A; opacity:0.30; stroke:#E8B65A; stroke-width:1.5; }
    .det { fill:none; stroke:#EAEAEA; stroke-width:1.8; }
    .ray { stroke:#6FB7E0; stroke-width:2; fill:none; marker-end:url(#ah4); }
    .lead { stroke:#9AA0A6; stroke-width:1.2; fill:none; }
    .cap { fill:#9AA0A6; font-size:13px; }
    .roller { fill:#6FB7E0; opacity:0.3; stroke:#EAEAEA; stroke-width:1.2; }
  </style>
  <defs>
    <marker id="ah4" markerWidth="9" markerHeight="9" refX="7" refY="3" orient="auto">
      <path d="M0,0 L7,3 L0,6 Z" fill="#6FB7E0"/>
    </marker>
  </defs>

  <!-- detector at top -->
  <path class="det" d="M215,55 a30,18 0 1 1 60,0"/>
  <rect class="det" x="235" y="70" width="20" height="16"/>
  <text x="290" y="60">detector (GM tube)</text>
  <path class="lead" d="M288,56 L268,52"/>

  <!-- moving material sheet -->
  <rect class="metal" x="60" y="160" width="400" height="16"/>
  <text x="505" y="150" text-anchor="end">material</text>
  <path class="lead" d="M445,147 L420,160"/>

  <!-- rollers -->
  <circle class="roller" cx="95" cy="185" r="14"/>
  <circle class="roller" cx="425" cy="185" r="14"/>
  <text x="70" y="225" class="cap">conveyor rollers</text>

  <!-- radioactive source below -->
  <rect class="box" x="228" y="235" width="34" height="40" rx="3"/>
  <text x="290" y="262">radioactive source</text>
  <path class="lead" d="M288,258 L264,255"/>

  <!-- radiation beam through material to detector -->
  <path class="ray" d="M245,233 L245,90"/>

  <text x="260" y="305" text-anchor="middle" fill="#E8B65A" font-size="13">Thin material → higher count; thick material → lower count.</text>
</svg>
