<svg xmlns="http://www.w3.org/2000/svg" viewBox="0 0 420 380" font-family="Segoe UI, Arial, sans-serif">
  <style>
    text { fill:#EAEAEA; font-size:13px; }
    .case { fill:#EAEAEA; fill-opacity:0.06; stroke:#EAEAEA; stroke-width:2.4; }
    .part { fill:#EAEAEA; fill-opacity:0.10; stroke:#EAEAEA; stroke-width:1.8; }
    .tick { stroke:#EAEAEA; stroke-width:1.1; }
    .tickmaj { stroke:#EAEAEA; stroke-width:2; }
    .hand { stroke:#E8B65A; stroke-width:2.6; stroke-linecap:round; }
    .num { fill:#9AA0A6; font-size:11px; }
    .lbl { fill:#EAEAEA; font-size:13px; }
    .sub { fill:#9AA0A6; font-size:12px; }
    .screen { fill:#101418; stroke:#9AA0A6; stroke-width:1.4; }
    .read { fill:#E8B65A; font-family:monospace; }
  </style>
  <rect data-step="1" class="part" x="97" y="34" width="16" height="14" rx="3"/>
  <circle data-step="1" class="case" cx="105" cy="112" r="66"/>
  <line data-step="1" class="tickmaj" x1="105" y1="54" x2="105" y2="66"/>
  <line data-step="1" class="tick" x1="111.1" y1="54.3" x2="110.4" y2="60.3"/>
  <line data-step="1" class="tick" x1="117.1" y1="55.3" x2="115.8" y2="61.1"/>
  <line data-step="1" class="tick" x1="122.9" y1="56.8" x2="121.1" y2="62.5"/>
  <line data-step="1" class="tick" x1="128.6" y1="59" x2="126.2" y2="64.5"/>
  <line data-step="1" class="tickmaj" x1="134" y1="61.8" x2="128" y2="72.2"/>
  <line data-step="1" class="tick" x1="139.1" y1="65.1" x2="135.6" y2="69.9"/>
  <line data-step="1" class="tick" x1="143.8" y1="68.9" x2="139.8" y2="73.4"/>
  <line data-step="1" class="tick" x1="148.1" y1="73.2" x2="143.6" y2="77.2"/>
  <line data-step="1" class="tick" x1="151.9" y1="77.9" x2="147.1" y2="81.4"/>
  <line data-step="1" class="tickmaj" x1="155.2" y1="83" x2="144.8" y2="89"/>
  <line data-step="1" class="tick" x1="158" y1="88.4" x2="152.5" y2="90.8"/>
  <line data-step="1" class="tick" x1="160.2" y1="94.1" x2="154.5" y2="95.9"/>
  <line data-step="1" class="tick" x1="161.7" y1="99.9" x2="155.9" y2="101.2"/>
  <line data-step="1" class="tick" x1="162.7" y1="105.9" x2="156.7" y2="106.6"/>
  <line data-step="1" class="tickmaj" x1="163" y1="112" x2="151" y2="112"/>
  <line data-step="1" class="tick" x1="162.7" y1="118.1" x2="156.7" y2="117.4"/>
  <line data-step="1" class="tick" x1="161.7" y1="124.1" x2="155.9" y2="122.8"/>
  <line data-step="1" class="tick" x1="160.2" y1="129.9" x2="154.5" y2="128.1"/>
  <line data-step="1" class="tick" x1="158" y1="135.6" x2="152.5" y2="133.2"/>
  <line data-step="1" class="tickmaj" x1="155.2" y1="141" x2="144.8" y2="135"/>
  <line data-step="1" class="tick" x1="151.9" y1="146.1" x2="147.1" y2="142.6"/>
  <line data-step="1" class="tick" x1="148.1" y1="150.8" x2="143.6" y2="146.8"/>
  <line data-step="1" class="tick" x1="143.8" y1="155.1" x2="139.8" y2="150.6"/>
  <line data-step="1" class="tick" x1="139.1" y1="158.9" x2="135.6" y2="154.1"/>
  <line data-step="1" class="tickmaj" x1="134" y1="162.2" x2="128" y2="151.8"/>
  <line data-step="1" class="tick" x1="128.6" y1="165" x2="126.2" y2="159.5"/>
  <line data-step="1" class="tick" x1="122.9" y1="167.2" x2="121.1" y2="161.5"/>
  <line data-step="1" class="tick" x1="117.1" y1="168.7" x2="115.8" y2="162.9"/>
  <line data-step="1" class="tick" x1="111.1" y1="169.7" x2="110.4" y2="163.7"/>
  <line data-step="1" class="tickmaj" x1="105" y1="170" x2="105" y2="158"/>
  <line data-step="1" class="tick" x1="98.9" y1="169.7" x2="99.6" y2="163.7"/>
  <line data-step="1" class="tick" x1="92.9" y1="168.7" x2="94.2" y2="162.9"/>
  <line data-step="1" class="tick" x1="87.1" y1="167.2" x2="88.9" y2="161.5"/>
  <line data-step="1" class="tick" x1="81.4" y1="165" x2="83.8" y2="159.5"/>
  <line data-step="2" class="tickmaj" x1="76" y1="162.2" x2="82" y2="151.8"/>
  <line data-step="2" class="tick" x1="70.9" y1="158.9" x2="74.4" y2="154.1"/>
  <line data-step="2" class="tick" x1="66.2" y1="155.1" x2="70.2" y2="150.6"/>
  <line data-step="2" class="tick" x1="61.9" y1="150.8" x2="66.4" y2="146.8"/>
  <line data-step="2" class="tick" x1="58.1" y1="146.1" x2="62.9" y2="142.6"/>
  <line data-step="2" class="tickmaj" x1="54.8" y1="141" x2="65.2" y2="135"/>
  <line data-step="2" class="tick" x1="52" y1="135.6" x2="57.5" y2="133.2"/>
  <line data-step="2" class="tick" x1="49.8" y1="129.9" x2="55.5" y2="128.1"/>
  <line data-step="2" class="tick" x1="48.3" y1="124.1" x2="54.1" y2="122.8"/>
  <line data-step="2" class="tick" x1="47.3" y1="118.1" x2="53.3" y2="117.4"/>
  <line data-step="2" class="tickmaj" x1="47" y1="112" x2="59" y2="112"/>
  <line data-step="2" class="tick" x1="47.3" y1="105.9" x2="53.3" y2="106.6"/>
  <line data-step="2" class="tick" x1="48.3" y1="99.9" x2="54.1" y2="101.2"/>
  <line data-step="2" class="tick" x1="49.8" y1="94.1" x2="55.5" y2="95.9"/>
  <line data-step="2" class="tick" x1="52" y1="88.4" x2="57.5" y2="90.8"/>
  <line data-step="2" class="tickmaj" x1="54.8" y1="83" x2="65.2" y2="89"/>
  <line data-step="2" class="tick" x1="58.1" y1="77.9" x2="62.9" y2="81.4"/>
  <line data-step="2" class="tick" x1="61.9" y1="73.2" x2="66.4" y2="77.2"/>
  <line data-step="2" class="tick" x1="66.2" y1="68.9" x2="70.2" y2="73.4"/>
  <line data-step="2" class="tick" x1="70.9" y1="65.1" x2="74.4" y2="69.9"/>
  <line data-step="2" class="tickmaj" x1="76" y1="61.8" x2="82" y2="72.2"/>
  <line data-step="2" class="tick" x1="81.4" y1="59" x2="83.8" y2="64.5"/>
  <line data-step="2" class="tick" x1="87.1" y1="56.8" x2="88.9" y2="62.5"/>
  <line data-step="2" class="tick" x1="92.9" y1="55.3" x2="94.2" y2="61.1"/>
  <line data-step="2" class="tick" x1="98.9" y1="54.3" x2="99.6" y2="60.3"/>
  <text data-step="3" class="num" x="105" y="78" text-anchor="middle">0</text>
  <text data-step="3" class="num" x="143" y="116" text-anchor="middle">15</text>
  <text data-step="3" class="num" x="105" y="156" text-anchor="middle">30</text>
  <text data-step="3" class="num" x="67" y="116" text-anchor="middle">45</text>
  <path data-step="2" class="hand" d="M105,112 L153.9,122.4"/>
  <circle data-step="2" cx="105" cy="112" r="3.5" fill="#E8B65A"/>
  <text data-step="3" class="lbl" x="105" y="200" text-anchor="middle">analogue</text>
  <text data-step="3" class="sub" x="105" y="218" text-anchor="middle">reads to 1 s</text>
  <rect data-step="2" class="part" x="245" y="50" width="150" height="125" rx="14"/>
  <rect data-step="2" class="part" x="262" y="38" width="26" height="14" rx="4"/>
  <rect data-step="2" class="part" x="352" y="38" width="26" height="14" rx="4"/>
  <rect data-step="2" class="screen" x="262" y="86" width="116" height="44" rx="4"/>
  <text data-step="3" class="read" x="370" y="120" text-anchor="end" font-size="22">12.34 s</text>
  <rect data-step="2" class="part" x="278" y="142" width="36" height="18" rx="5"/>
  <rect data-step="2" class="part" x="326" y="142" width="36" height="18" rx="5"/>
  <text data-step="4" class="lbl" x="320" y="200" text-anchor="middle">digital</text>
  <text data-step="4" class="sub" x="320" y="218" text-anchor="middle">reads to 0.01 s</text>
  <rect data-step="2" class="part" x="145" y="252" width="130" height="18" rx="3"/>
  <rect data-step="2" class="part" x="110" y="270" width="200" height="60" rx="8"/>
  <rect data-step="2" class="screen" x="125" y="284" width="100" height="28" rx="4"/>
  <text data-step="4" class="read" x="218" y="305" text-anchor="end" font-size="16">24.35 g</text>
  <rect data-step="2" class="part" x="240" y="290" width="55" height="22" rx="5"/>
  <text data-step="4" class="num" x="267" y="305" text-anchor="middle">tare</text>
  <text data-step="4" class="lbl" x="210" y="350" text-anchor="middle">electronic balance</text>
  <text data-step="4" class="sub" x="210" y="368" text-anchor="middle">reads to 0.01 g</text>
</svg>
