<svg xmlns="http://www.w3.org/2000/svg" viewBox="0 0 500 215" font-family="Segoe UI, Arial, sans-serif">
  <style>
    text { fill:#EAEAEA; }
    .axis { stroke:#EAEAEA; stroke-width:1.6; fill:none; }
    .wave { stroke:#6FB7E0; stroke-width:2.2; fill:none; }
    .wave2 { stroke:#E8B65A; stroke-width:2.2; fill:none; stroke-dasharray:6 4; }
    .rest { stroke:#9AA0A6; stroke-width:1.2; stroke-dasharray:5 4; fill:none; }
    .guide { stroke:#9AA0A6; stroke-width:1; stroke-dasharray:3 3; fill:none; }
    .lead { stroke:#9AA0A6; stroke-width:1.2; fill:none; }
    .dim { stroke:#E8B65A; stroke-width:1.4; fill:none; }
    .lbl { fill:#E8B65A; font-size:13px; }
    .lblb { fill:#6FB7E0; font-size:13px; }
    .tick { stroke:#EAEAEA; stroke-width:1.2; }
    .sm { font-size:12px; }
  </style>

  <defs>
    <marker id="ah" markerWidth="9" markerHeight="9" refX="7" refY="3" orient="auto">
      <path d="M0,0 L7,3 L0,6 Z" fill="#EAEAEA"/>
    </marker>
    <marker id="aha" markerWidth="9" markerHeight="9" refX="7" refY="3" orient="auto">
      <path d="M0,0 L7,3 L0,6 Z" fill="#E8B65A"/>
    </marker>
  </defs>
  <line data-step="1" x1="80" y1="158" x2="80" y2="42" class="axis" marker-end="url(#ah)"/>
  <line data-step="1" x1="66" y1="100" x2="440" y2="100" class="axis" marker-end="url(#ah)"/>
  <text data-step="3" x="16" y="32" font-size="13">displacement</text>
  <text data-step="3" x="440" y="118" text-anchor="end" font-size="13">time</text>
  <text data-step="3" x="74" y="115" text-anchor="end" font-size="12">0</text>
  <path data-step="2" class="wave" d="M 80.00,100.00 L 82.00,93.33 L 84.00,86.85 L 86.00,80.73 L 88.00,75.15 L 90.00,70.27 L 92.00,66.23 L 94.00,63.13 L 96.00,61.06 L 98.00,60.08 L 100.00,60.22 L 102.00,61.47 L 104.00,63.81 L 106.00,67.15 L 108.00,71.42 L 110.00,76.49 L 112.00,82.21 L 114.00,88.44 L 116.00,94.99 L 118.00,101.68 L 120.00,108.32 L 122.00,114.72 L 124.00,120.72 L 126.00,126.14 L 128.00,130.82 L 130.00,134.64 L 132.00,137.49 L 134.00,139.29 L 136.00,139.99 L 138.00,139.57 L 140.00,138.04 L 142.00,135.45 L 144.00,131.86 L 146.00,127.38 L 148.00,122.14 L 150.00,116.27 L 152.00,109.95 L 154.00,103.35 L 156.00,96.65 L 158.00,90.05 L 160.00,83.73 L 162.00,77.86 L 164.00,72.62 L 166.00,68.14 L 168.00,64.55 L 170.00,61.96 L 172.00,60.43 L 174.00,60.01 L 176.00,60.71 L 178.00,62.51 L 180.00,65.36 L 182.00,69.18 L 184.00,73.86 L 186.00,79.28 L 188.00,85.28 L 190.00,91.68 L 192.00,98.32 L 194.00,105.01 L 196.00,111.56 L 198.00,117.79 L 200.00,123.51 L 202.00,128.58 L 204.00,132.85 L 206.00,136.19 L 208.00,138.53 L 210.00,139.78 L 212.00,139.92 L 214.00,138.94 L 216.00,136.87 L 218.00,133.77 L 220.00,129.73 L 222.00,124.85 L 224.00,119.27 L 226.00,113.15 L 228.00,106.67 L 230.00,100.00 L 232.00,93.33 L 234.00,86.85 L 236.00,80.73 L 238.00,75.15 L 240.00,70.27 L 242.00,66.23 L 244.00,63.13 L 246.00,61.06 L 248.00,60.08 L 250.00,60.22 L 252.00,61.47 L 254.00,63.81 L 256.00,67.15 L 258.00,71.42 L 260.00,76.49 L 262.00,82.21 L 264.00,88.44 L 266.00,94.99 L 268.00,101.68 L 270.00,108.32 L 272.00,114.72 L 274.00,120.72 L 276.00,126.14 L 278.00,130.82 L 280.00,134.64 L 282.00,137.49 L 284.00,139.29 L 286.00,139.99 L 288.00,139.57 L 290.00,138.04 L 292.00,135.45 L 294.00,131.86 L 296.00,127.38 L 298.00,122.14 L 300.00,116.27 L 302.00,109.95 L 304.00,103.35 L 306.00,96.65 L 308.00,90.05 L 310.00,83.73 L 312.00,77.86 L 314.00,72.62 L 316.00,68.14 L 318.00,64.55 L 320.00,61.96 L 322.00,60.43 L 324.00,60.01 L 326.00,60.71 L 328.00,62.51 L 330.00,65.36 L 332.00,69.18 L 334.00,73.86 L 336.00,79.28 L 338.00,85.28 L 340.00,91.68 L 342.00,98.32 L 344.00,105.01 L 346.00,111.56 L 348.00,117.79 L 350.00,123.51 L 352.00,128.58 L 354.00,132.85 L 356.00,136.19 L 358.00,138.53 L 360.00,139.78 L 362.00,139.92 L 364.00,138.94 L 366.00,136.87 L 368.00,133.77 L 370.00,129.73 L 372.00,124.85 L 374.00,119.27 L 376.00,113.15 L 378.00,106.67 L 380.00,100.00"/>
  <path data-step="2" class="wave2" d="M 80.00,100.00 L 82.00,97.39 L 84.00,94.80 L 86.00,92.24 L 88.00,89.74 L 90.00,87.31 L 92.00,84.97 L 94.00,82.73 L 96.00,80.62 L 98.00,78.64 L 100.00,76.81 L 102.00,75.15 L 104.00,73.66 L 106.00,72.35 L 108.00,71.24 L 110.00,70.33 L 112.00,69.62 L 114.00,69.13 L 116.00,68.86 L 118.00,68.81 L 120.00,68.97 L 122.00,69.35 L 124.00,69.95 L 126.00,70.76 L 128.00,71.77 L 130.00,72.98 L 132.00,74.38 L 134.00,75.96 L 136.00,77.71 L 138.00,79.61 L 140.00,81.66 L 142.00,83.84 L 144.00,86.13 L 146.00,88.51 L 148.00,90.98 L 150.00,93.51 L 152.00,96.09 L 154.00,98.69 L 156.00,101.31 L 158.00,103.91 L 160.00,106.49 L 162.00,109.02 L 164.00,111.49 L 166.00,113.87 L 168.00,116.16 L 170.00,118.34 L 172.00,120.39 L 174.00,122.29 L 176.00,124.04 L 178.00,125.62 L 180.00,127.02 L 182.00,128.23 L 184.00,129.24 L 186.00,130.05 L 188.00,130.65 L 190.00,131.03 L 192.00,131.19 L 194.00,131.14 L 196.00,130.87 L 198.00,130.38 L 200.00,129.67 L 202.00,128.76 L 204.00,127.65 L 206.00,126.34 L 208.00,124.85 L 210.00,123.19 L 212.00,121.36 L 214.00,119.38 L 216.00,117.27 L 218.00,115.03 L 220.00,112.69 L 222.00,110.26 L 224.00,107.76 L 226.00,105.20 L 228.00,102.61 L 230.00,100.00 L 232.00,97.39 L 234.00,94.80 L 236.00,92.24 L 238.00,89.74 L 240.00,87.31 L 242.00,84.97 L 244.00,82.73 L 246.00,80.62 L 248.00,78.64 L 250.00,76.81 L 252.00,75.15 L 254.00,73.66 L 256.00,72.35 L 258.00,71.24 L 260.00,70.33 L 262.00,69.62 L 264.00,69.13 L 266.00,68.86 L 268.00,68.81 L 270.00,68.97 L 272.00,69.35 L 274.00,69.95 L 276.00,70.76 L 278.00,71.77 L 280.00,72.98 L 282.00,74.38 L 284.00,75.96 L 286.00,77.71 L 288.00,79.61 L 290.00,81.66 L 292.00,83.84 L 294.00,86.13 L 296.00,88.51 L 298.00,90.98 L 300.00,93.51 L 302.00,96.09 L 304.00,98.69 L 306.00,101.31 L 308.00,103.91 L 310.00,106.49 L 312.00,109.02 L 314.00,111.49 L 316.00,113.87 L 318.00,116.16 L 320.00,118.34 L 322.00,120.39 L 324.00,122.29 L 326.00,124.04 L 328.00,125.62 L 330.00,127.02 L 332.00,128.23 L 334.00,129.24 L 336.00,130.05 L 338.00,130.65 L 340.00,131.03 L 342.00,131.19 L 344.00,131.14 L 346.00,130.87 L 348.00,130.38 L 350.00,129.67 L 352.00,128.76 L 354.00,127.65 L 356.00,126.34 L 358.00,124.85 L 360.00,123.19 L 362.00,121.36 L 364.00,119.38 L 366.00,117.27 L 368.00,115.03 L 370.00,112.69 L 372.00,110.26 L 374.00,107.76 L 376.00,105.20 L 378.00,102.61 L 380.00,100.00"/>
  <text data-step="4" x="150" y="180" font-size="13" fill="#6FB7E0">■ higher frequency: more cycles each second</text>
  <text data-step="4" x="150" y="198" font-size="13" fill="#E8B65A">■ lower frequency: fewer cycles each second</text>

</svg>
