<svg xmlns="http://www.w3.org/2000/svg" viewBox="0 0 470 200" font-family="Segoe UI, Arial, sans-serif">
  <style>
    text { fill:#EAEAEA; }
    .axis { stroke:#EAEAEA; stroke-width:1.6; fill:none; }
    .wave { stroke:#6FB7E0; stroke-width:2.2; fill:none; }
    .wave2 { stroke:#E8B65A; stroke-width:2.2; fill:none; stroke-dasharray:6 4; }
    .rest { stroke:#9AA0A6; stroke-width:1.2; stroke-dasharray:5 4; fill:none; }
    .guide { stroke:#9AA0A6; stroke-width:1; stroke-dasharray:3 3; fill:none; }
    .lead { stroke:#9AA0A6; stroke-width:1.2; fill:none; }
    .dim { stroke:#E8B65A; stroke-width:1.4; fill:none; }
    .lbl { fill:#E8B65A; font-size:14px; }
    .lblb { fill:#6FB7E0; font-size:14px; }
    .tick { stroke:#EAEAEA; stroke-width:1.2; }
    .sm { font-size:12px; }
  </style>

  <defs>
    <marker id="ah" markerWidth="9" markerHeight="9" refX="7" refY="3" orient="auto">
      <path d="M0,0 L7,3 L0,6 Z" fill="#EAEAEA"/>
    </marker>
    <marker id="ahb" markerWidth="9" markerHeight="9" refX="7" refY="3" orient="auto">
      <path d="M0,0 L7,3 L0,6 Z" fill="#6FB7E0"/>
    </marker>
    <marker id="aha" markerWidth="9" markerHeight="9" refX="7" refY="3" orient="auto">
      <path d="M0,0 L7,3 L0,6 Z" fill="#E8B65A"/>
    </marker>
    <marker id="ahm" markerWidth="9" markerHeight="9" refX="7" refY="3" orient="auto">
      <path d="M0,0 L7,3 L0,6 Z" fill="#9AA0A6"/>
    </marker>
  </defs>
  <line x1="80" y1="173" x2="80" y2="47" class="axis" marker-end="url(#ah)"/>
  <line x1="66" y1="110" x2="440" y2="110" class="axis" marker-end="url(#ah)"/>
  <text x="16" y="36" font-size="13">displacement</text>
  <text x="440" y="128" text-anchor="end" font-size="13">distance</text>
  <text x="74" y="125" text-anchor="end" font-size="12">0</text>
  <text x="74" y="69" text-anchor="end" font-size="12" font-style="italic">A</text>
  <line x1="77" y1="65" x2="83" y2="65" class="tick"/>
  <text x="74" y="159" text-anchor="end" font-size="12" font-style="italic">-A</text>
  <line x1="77" y1="155" x2="83" y2="155" class="tick"/>
  <path class="wave" d="M 80.00,110.00 L 82.00,105.66 L 84.00,101.35 L 86.00,97.13 L 88.00,93.03 L 90.00,89.09 L 92.00,85.34 L 94.00,81.82 L 96.00,78.57 L 98.00,75.61 L 100.00,72.97 L 102.00,70.67 L 104.00,68.74 L 106.00,67.20 L 108.00,66.06 L 110.00,65.33 L 112.00,65.01 L 114.00,65.12 L 116.00,65.64 L 118.00,66.58 L 120.00,67.92 L 122.00,69.66 L 124.00,71.77 L 126.00,74.24 L 128.00,77.05 L 130.00,80.16 L 132.00,83.55 L 134.00,87.19 L 136.00,91.04 L 138.00,95.06 L 140.00,99.23 L 142.00,103.50 L 144.00,107.83 L 146.00,112.17 L 148.00,116.50 L 150.00,120.77 L 152.00,124.94 L 154.00,128.96 L 156.00,132.81 L 158.00,136.45 L 160.00,139.84 L 162.00,142.95 L 164.00,145.76 L 166.00,148.23 L 168.00,150.34 L 170.00,152.08 L 172.00,153.42 L 174.00,154.36 L 176.00,154.88 L 178.00,154.99 L 180.00,154.67 L 182.00,153.94 L 184.00,152.80 L 186.00,151.26 L 188.00,149.33 L 190.00,147.03 L 192.00,144.39 L 194.00,141.43 L 196.00,138.18 L 198.00,134.66 L 200.00,130.91 L 202.00,126.97 L 204.00,122.87 L 206.00,118.65 L 208.00,114.34 L 210.00,110.00 L 212.00,105.66 L 214.00,101.35 L 216.00,97.13 L 218.00,93.03 L 220.00,89.09 L 222.00,85.34 L 224.00,81.82 L 226.00,78.57 L 228.00,75.61 L 230.00,72.97 L 232.00,70.67 L 234.00,68.74 L 236.00,67.20 L 238.00,66.06 L 240.00,65.33 L 242.00,65.01 L 244.00,65.12 L 246.00,65.64 L 248.00,66.58 L 250.00,67.92 L 252.00,69.66 L 254.00,71.77 L 256.00,74.24 L 258.00,77.05 L 260.00,80.16 L 262.00,83.55 L 264.00,87.19 L 266.00,91.04 L 268.00,95.06 L 270.00,99.23 L 272.00,103.50 L 274.00,107.83 L 276.00,112.17 L 278.00,116.50 L 280.00,120.77 L 282.00,124.94 L 284.00,128.96 L 286.00,132.81 L 288.00,136.45 L 290.00,139.84 L 292.00,142.95 L 294.00,145.76 L 296.00,148.23 L 298.00,150.34 L 300.00,152.08 L 302.00,153.42 L 304.00,154.36 L 306.00,154.88 L 308.00,154.99 L 310.00,154.67 L 312.00,153.94 L 314.00,152.80 L 316.00,151.26 L 318.00,149.33 L 320.00,147.03 L 322.00,144.39 L 324.00,141.43 L 326.00,138.18 L 328.00,134.66 L 330.00,130.91 L 332.00,126.97 L 334.00,122.87 L 336.00,118.65 L 338.00,114.34 L 340.00,110.00 L 342.00,105.66 L 344.00,101.35 L 346.00,97.13 L 348.00,93.03 L 350.00,89.09 L 352.00,85.34 L 354.00,81.82 L 356.00,78.57 L 358.00,75.61 L 360.00,72.97 L 362.00,70.67 L 364.00,68.74 L 366.00,67.20 L 368.00,66.06 L 370.00,65.33 L 372.00,65.01 L 374.00,65.12 L 376.00,65.64 L 378.00,66.58 L 380.00,67.92 L 382.00,69.66 L 384.00,71.77 L 386.00,74.24 L 388.00,77.05 L 390.00,80.16 L 392.00,83.55 L 394.00,87.19 L 396.00,91.04 L 398.00,95.06 L 400.00,99.23 L 402.00,103.50 L 404.00,107.83 L 406.00,112.17 L 408.00,116.50 L 410.00,120.77 L 412.00,124.94 L 414.00,128.96 L 416.00,132.81 L 418.00,136.45 L 420.00,139.84"/>
  <line x1="112.5" y1="110" x2="112.5" y2="65" class="dim" marker-start="url(#aha)" marker-end="url(#aha)"/>
  <text x="120.5" y="87.5" class="lbl">amplitude</text>
  <line x1="177.5" y1="110" x2="177.5" y2="155" class="dim" marker-start="url(#aha)" marker-end="url(#aha)"/>
  <text x="185.5" y="136.5" class="lbl">amplitude</text>
  <text x="112" y="59" text-anchor="middle" font-size="12" fill="#9AA0A6">crest</text>
  <text x="178" y="171" text-anchor="middle" font-size="12" fill="#9AA0A6">trough</text>

</svg>
