<svg xmlns="http://www.w3.org/2000/svg" viewBox="0 0 858 395" font-family="Segoe UI, Arial, sans-serif">
  <style>
    text { fill:#EAEAEA; }
    .band { stroke-width:1.4; }
    .lbl { font-size:12px; text-anchor:middle; }
    .rng { font-size:9.5px; text-anchor:middle; fill:#9AA0A6; }
    .ax  { stroke:#EAEAEA; stroke-width:1.5; }
    .sq  { fill:none; stroke:#EAEAEA; stroke-width:1.6; }
  </style>
  <defs>
    <marker id="ar" markerWidth="10" markerHeight="10" refX="8" refY="5" orient="auto">
      <path d="M0,0 L10,5 L0,10 z" fill="#EAEAEA"/>
    </marker>
  </defs>
  <text x="70" y="36" font-size="12">frequency &amp; energy content &#8594;</text>
  <line class="ax" x1="70" y1="58" x2="798" y2="58" marker-end="url(#ar)"/>
  <text x="78" y="74" font-size="11" fill="#9AA0A6">low</text>
  <text x="758" y="74" font-size="11" fill="#9AA0A6">high</text>
  <rect class="band" x="70" y="108" width="104" height="150" fill="#6FB7E0" fill-opacity="0.18" stroke="#6FB7E0"/>
  <text class="lbl" x="122" y="130" fill="#6FB7E0">Radiowaves</text>
  <text class="rng" x="122" y="248">&gt; 10⁻¹ m</text>
  <path class="sq" d="M76.0,208.0 Q95.2,186.0 114.3,208.0 Q133.5,230.0 152.7,208.0"/>
  <rect class="band" x="174" y="108" width="104" height="150" fill="#86C98B" fill-opacity="0.18" stroke="#86C98B"/>
  <text class="lbl" x="226" y="130" fill="#86C98B">Microwaves</text>
  <text class="rng" x="226" y="248">10⁻⁴–10⁻¹ m</text>
  <path class="sq" d="M180.0,208.0 Q191.5,186.0 203.0,208.0 Q214.5,230.0 226.0,208.0 Q237.5,186.0 249.0,208.0 Q260.5,230.0 272.0,208.0"/>
  <rect class="band" x="278" y="108" width="104" height="150" fill="#E58F8F" fill-opacity="0.18" stroke="#E58F8F"/>
  <text class="lbl" x="330" y="130" fill="#E58F8F">Infrared</text>
  <text class="rng" x="330" y="248">7×10⁻⁷–10⁻⁴ m</text>
  <path class="sq" d="M284.0,208.0 Q291.2,186.0 298.4,208.0 Q305.6,230.0 312.8,208.0 Q319.9,186.0 327.1,208.0 Q334.3,230.0 341.5,208.0 Q348.7,186.0 355.9,208.0 Q363.1,230.0 370.2,208.0"/>
  <rect class="band" x="382" y="108" width="104" height="150" fill="#E8B65A" fill-opacity="0.18" stroke="#E8B65A"/>
  <text class="lbl" x="434" y="130" fill="#E8B65A">Visible</text>
  <text class="rng" x="434" y="248">4–77×10⁻⁷ m</text>
  <path class="sq" d="M388.0,208.0 Q392.6,186.0 397.2,208.0 Q401.8,230.0 406.4,208.0 Q411.0,186.0 415.6,208.0 Q420.2,230.0 424.8,208.0 Q429.4,186.0 434.0,208.0 Q438.6,230.0 443.2,208.0 Q447.8,186.0 452.4,208.0 Q457.0,230.0 461.6,208.0 Q466.2,186.0 470.8,208.0 Q475.4,230.0 480.0,208.0"/>
  <rect class="band" x="486" y="108" width="104" height="150" fill="#B79AE0" fill-opacity="0.18" stroke="#B79AE0"/>
  <text class="lbl" x="538" y="130" fill="#B79AE0">Ultraviolet</text>
  <text class="rng" x="538" y="248">10⁻⁸–4×10⁻⁷ m</text>
  <path class="sq" d="M492.0,208.0 Q495.3,186.0 498.6,208.0 Q501.9,230.0 505.1,208.0 Q508.4,186.0 511.7,208.0 Q515.0,230.0 518.3,208.0 Q521.6,186.0 524.9,208.0 Q528.1,230.0 531.4,208.0 Q534.7,186.0 538.0,208.0 Q541.3,230.0 544.6,208.0 Q547.9,186.0 551.1,208.0 Q554.4,230.0 557.7,208.0 Q561.0,186.0 564.3,208.0 Q567.6,230.0 570.9,208.0 Q574.1,186.0 577.4,208.0 Q580.7,230.0 584.0,208.0"/>
  <rect class="band" x="590" y="108" width="104" height="150" fill="#9AA0A6" fill-opacity="0.18" stroke="#9AA0A6"/>
  <text class="lbl" x="642" y="130" fill="#9AA0A6">X-rays</text>
  <text class="rng" x="642" y="248">10⁻⁹–10⁻⁸ m</text>
  <path class="sq" d="M596.0,208.0 Q598.3,186.0 600.6,208.0 Q602.9,230.0 605.2,208.0 Q607.5,186.0 609.8,208.0 Q612.1,230.0 614.4,208.0 Q616.7,186.0 619.0,208.0 Q621.3,230.0 623.6,208.0 Q625.9,186.0 628.2,208.0 Q630.5,230.0 632.8,208.0 Q635.1,186.0 637.4,208.0 Q639.7,230.0 642.0,208.0 Q644.3,186.0 646.6,208.0 Q648.9,230.0 651.2,208.0 Q653.5,186.0 655.8,208.0 Q658.1,230.0 660.4,208.0 Q662.7,186.0 665.0,208.0 Q667.3,230.0 669.6,208.0 Q671.9,186.0 674.2,208.0 Q676.5,230.0 678.8,208.0 Q681.1,186.0 683.4,208.0 Q685.7,230.0 688.0,208.0"/>
  <rect class="band" x="694" y="108" width="104" height="150" fill="#E58F8F" fill-opacity="0.18" stroke="#E58F8F"/>
  <text class="lbl" x="746" y="130" fill="#E58F8F">Gamma rays</text>
  <text class="rng" x="746" y="248">&lt; 10⁻⁹ m</text>
  <path class="sq" d="M700.0,208.0 Q701.6,186.0 703.3,208.0 Q704.9,230.0 706.6,208.0 Q708.2,186.0 709.9,208.0 Q711.5,230.0 713.1,208.0 Q714.8,186.0 716.4,208.0 Q718.1,230.0 719.7,208.0 Q721.4,186.0 723.0,208.0 Q724.6,230.0 726.3,208.0 Q727.9,186.0 729.6,208.0 Q731.2,230.0 732.9,208.0 Q734.5,186.0 736.1,208.0 Q737.8,230.0 739.4,208.0 Q741.1,186.0 742.7,208.0 Q744.4,230.0 746.0,208.0 Q747.6,186.0 749.3,208.0 Q750.9,230.0 752.6,208.0 Q754.2,186.0 755.9,208.0 Q757.5,230.0 759.1,208.0 Q760.8,186.0 762.4,208.0 Q764.1,230.0 765.7,208.0 Q767.4,186.0 769.0,208.0 Q770.6,230.0 772.3,208.0 Q773.9,186.0 775.6,208.0 Q777.2,230.0 778.9,208.0 Q780.5,186.0 782.1,208.0 Q783.8,230.0 785.4,208.0 Q787.1,186.0 788.7,208.0 Q790.4,230.0 792.0,208.0"/>
  <text x="70" y="286" font-size="12">wavelength</text>
  <line class="ax" x1="798" y1="292" x2="70" y2="292" marker-end="url(#ar)"/>
  <text x="758" y="286" font-size="11" fill="#9AA0A6">short</text>
  <text x="78" y="308" font-size="11" fill="#9AA0A6">long</text>
  <line stroke="#9AA0A6" stroke-width="1" stroke-dasharray="4 3" x1="382" y1="258" x2="90" y2="322"/>
  <line stroke="#9AA0A6" stroke-width="1" stroke-dasharray="4 3" x1="486" y1="258" x2="778" y2="322"/>
  <rect x="90.0" y="322" width="98.3" height="40" fill="#E58F8F" fill-opacity="0.55" stroke="#E58F8F" stroke-width="0.8"/>
  <text x="139.1" y="347" font-size="12" text-anchor="middle" fill="#0d0d0d" font-weight="bold">R</text>
  <rect x="188.3" y="322" width="98.3" height="40" fill="#E8A55A" fill-opacity="0.55" stroke="#E8A55A" stroke-width="0.8"/>
  <text x="237.4" y="347" font-size="12" text-anchor="middle" fill="#0d0d0d" font-weight="bold">O</text>
  <rect x="286.6" y="322" width="98.3" height="40" fill="#E8D45A" fill-opacity="0.55" stroke="#E8D45A" stroke-width="0.8"/>
  <text x="335.7" y="347" font-size="12" text-anchor="middle" fill="#0d0d0d" font-weight="bold">Y</text>
  <rect x="384.9" y="322" width="98.3" height="40" fill="#86C98B" fill-opacity="0.55" stroke="#86C98B" stroke-width="0.8"/>
  <text x="434.0" y="347" font-size="12" text-anchor="middle" fill="#0d0d0d" font-weight="bold">G</text>
  <rect x="483.1" y="322" width="98.3" height="40" fill="#6FB7E0" fill-opacity="0.55" stroke="#6FB7E0" stroke-width="0.8"/>
  <text x="532.3" y="347" font-size="12" text-anchor="middle" fill="#0d0d0d" font-weight="bold">B</text>
  <rect x="581.4" y="322" width="98.3" height="40" fill="#5A7FE0" fill-opacity="0.55" stroke="#5A7FE0" stroke-width="0.8"/>
  <text x="630.6" y="347" font-size="12" text-anchor="middle" fill="#0d0d0d" font-weight="bold">I</text>
  <rect x="679.7" y="322" width="98.3" height="40" fill="#B79AE0" fill-opacity="0.55" stroke="#B79AE0" stroke-width="0.8"/>
  <text x="728.9" y="347" font-size="12" text-anchor="middle" fill="#0d0d0d" font-weight="bold">V</text>
  <text x="90" y="378" font-size="10.5" fill="#9AA0A6">red (longest &#955;, nearest infrared)</text>
  <text x="778" y="378" font-size="10.5" fill="#9AA0A6" text-anchor="end">violet (shortest &#955;, nearest UV)</text>
  <text x="434" y="314" font-size="11" text-anchor="middle">visible light spectrum</text>
</svg>