<svg xmlns="http://www.w3.org/2000/svg" viewBox="25 40 460 265" font-family="Segoe UI, Arial, sans-serif">
  <style>
    text { fill:#EAEAEA; }
    .wire { fill:none; stroke:#EAEAEA; stroke-width:2; }
    .res { fill:none; stroke:#EAEAEA; stroke-width:2; }
    .cellL { stroke:#EAEAEA; stroke-width:2; }
    .cellS { stroke:#EAEAEA; stroke-width:5; }
    .meter { fill:none; stroke:#EAEAEA; stroke-width:2; }
    .lbl { fill:#6FB7E0; font-style:italic; }
    .accent { fill:#E8B65A; }
  </style>
  <!-- supply on left (cell on a vertical rail: horizontal plates) -->
  <text data-step="1" x="55" y="132" text-anchor="middle" font-size="14" class="lbl">V<tspan font-size="10">in</tspan></text>
  <path data-step="1" class="wire" d="M94,60 L94,120"/>
  <path data-step="1" class="wire" d="M94,136 L94,220"/>
  <line data-step="1" class="cellL" x1="76" y1="122" x2="112" y2="122"/>
  <line data-step="1" class="cellS" x1="86" y1="134" x2="102" y2="134"/>
  <path data-step="1" class="wire" d="M94,60 L250,60"/>
  <path data-step="1" class="wire" d="M94,220 L250,220"/>
  <!-- R1 top (vertical) -->
  <rect data-step="2" class="res" x="236" y="70" width="28" height="55"/>
  <text data-step="2" x="278" y="100" font-size="14" class="lbl">R₁</text>
  <!-- R2 bottom (vertical) -->
  <rect data-step="3" class="res" x="236" y="150" width="28" height="55"/>
  <text data-step="3" x="278" y="182" font-size="14" class="lbl">R₂</text>
  <path data-step="3" class="wire" d="M250,125 L250,150"/>
  <!-- tap between R1 and R2 to output -->
  <path data-step="4" class="wire" d="M250,137 L340,137"/>
  <circle data-step="4" cx="250" cy="137" r="3" fill="#EAEAEA"/>
  <!-- voltmeter across R2 (output) -->
  <circle data-step="5" class="meter" cx="360" cy="137" r="16"/>
  <text data-step="5" x="360" y="142" text-anchor="middle" font-size="13">V</text>
  <path data-step="5" class="wire" d="M376,137 L410,137 L410,220 L250,220"/>
  <text data-step="5" x="430" y="141" font-size="14" class="lbl">V<tspan font-size="10">out</tspan></text>
  <!-- formula box -->
  <rect data-step="6" x="130" y="250" width="250" height="46" rx="4" fill="none" stroke="#9AA0A6" stroke-width="1.2"/>
  <text data-step="6" x="255" y="280" text-anchor="middle" font-size="15" class="accent">V<tspan font-size="11">out</tspan> = R₂ / (R₁ + R₂) × V<tspan font-size="11">in</tspan></text>
</svg>
