<svg xmlns="http://www.w3.org/2000/svg" viewBox="0 0 420 322" font-family="Segoe UI, Arial, sans-serif">
  <style>
    text { fill:#EAEAEA; font-size:12px; }
    .axis { stroke:#EAEAEA; stroke-width:1.6; }
    .tick { stroke:#EAEAEA; stroke-width:1.1; }
    .num { fill:#9AA0A6; font-size:11px; }
    .pt { stroke:#EAEAEA; stroke-width:1.8; fill:none; }
    .fit { stroke:#6FB7E0; stroke-width:2.2; fill:none; }
    .grad { stroke:#E8B65A; stroke-width:2; fill:none; }
    .gradtx { fill:#E8B65A; font-size:12px; }
    .ax { fill:#EAEAEA; font-size:12px; }
  </style>
  <defs><marker id="ax12" markerWidth="9" markerHeight="9" refX="7" refY="3" orient="auto"><path d="M0,0 L7,3 L0,6 Z" fill="#EAEAEA"/></marker><marker id="ax12s" markerWidth="9" markerHeight="9" refX="0" refY="3" orient="auto"><path d="M7,0 L0,3 L7,6 Z" fill="#EAEAEA"/></marker></defs>
  <line data-step="1" class="axis" x1="72" y1="255" x2="72" y2="42" marker-end="url(#ax12)"/>
  <line data-step="1" class="axis" x1="72" y1="255" x2="390" y2="255" marker-end="url(#ax12)"/>
  <text data-step="3" class="ax" x="28" y="32">v&#178; / (m/s)&#178;</text>
  <text data-step="3" class="ax" x="230" y="288" text-anchor="middle">x / m</text>
  <line data-step="1" class="tick" x1="142" y1="255" x2="142" y2="261"/>
  <text data-step="3" class="num" x="142" y="273" text-anchor="middle">0.2</text>
  <line data-step="1" class="tick" x1="212" y1="255" x2="212" y2="261"/>
  <text data-step="3" class="num" x="212" y="273" text-anchor="middle">0.4</text>
  <line data-step="1" class="tick" x1="282" y1="255" x2="282" y2="261"/>
  <text data-step="3" class="num" x="282" y="273" text-anchor="middle">0.6</text>
  <line data-step="1" class="tick" x1="352" y1="255" x2="352" y2="261"/>
  <text data-step="3" class="num" x="352" y="273" text-anchor="middle">0.8</text>
  <line data-step="1" class="tick" x1="66" y1="209" x2="72" y2="209"/>
  <text data-step="3" class="num" x="60" y="213" text-anchor="end">0.5</text>
  <line data-step="1" class="tick" x1="66" y1="163" x2="72" y2="163"/>
  <text data-step="3" class="num" x="60" y="167" text-anchor="end">1.0</text>
  <line data-step="1" class="tick" x1="66" y1="117" x2="72" y2="117"/>
  <text data-step="4" class="num" x="60" y="121" text-anchor="end">1.5</text>
  <line data-step="2" class="tick" x1="66" y1="71" x2="72" y2="71"/>
  <text data-step="4" class="num" x="60" y="75" text-anchor="end">2.0</text>
  <path data-step="2" class="fit" d="M72,255 L350,75"/>
  <path data-step="2" class="pt" d="M105,230.4 L115,240.4 M105,240.4 L115,230.4"/>
  <path data-step="2" class="pt" d="M150,192.3 L160,202.3 M150,202.3 L160,192.3"/>
  <path data-step="2" class="pt" d="M195,170.2 L205,180.2 M195,180.2 L205,170.2"/>
  <path data-step="2" class="pt" d="M240,133.1 L250,143.1 M240,143.1 L250,133.1"/>
  <path data-step="2" class="pt" d="M285,113 L295,123 M285,123 L295,113"/>
  <path data-step="2" class="pt" d="M330,77.8 L340,87.8 M330,87.8 L340,77.8"/>
  <path data-step="2" class="grad" d="M150,204.5 L290,204.5 L290,114"/>
  <text data-step="4" class="gradtx" x="220" y="222.5" text-anchor="middle">&#916;x</text>
  <text data-step="4" class="gradtx" x="298" y="163.25">&#916;(v&#178;)</text>
  <text data-step="4" class="gradtx" x="122" y="60">gradient G = 2a</text>
  <text data-step="4" x="210" y="310" text-anchor="middle">g = G / (2 sin &#952;)</text>
  <text data-step="4" class="num" x="64" y="252" text-anchor="end">O</text>
</svg>
