<svg xmlns="http://www.w3.org/2000/svg" viewBox="0 0 440 380" font-family="Segoe UI, Arial, sans-serif">
  <style>
    text { fill:#EAEAEA; font-size:13px; }
    .metal { fill:none; stroke:#EAEAEA; stroke-width:2.2; }
    .lid { fill:#9AA0A6; fill-opacity:0.3; stroke:#EAEAEA; stroke-width:1.8; }
    .water { fill:#6FB7E0; fill-opacity:0.45; }
    .waterlbl { fill:#6FB7E0; }
    .lagging { fill:none; stroke:#E8B65A; stroke-width:2.4; stroke-dasharray:8 5; }
    .lagginglbl { fill:#E8B65A; }
    .heater { fill:none; stroke:#E58F8F; stroke-width:3; }
    .heaterlbl { fill:#E58F8F; }
    .glass { fill:none; stroke:#EAEAEA; stroke-width:2; }
    .wire { fill:none; stroke:#9AA0A6; stroke-width:1.6; }
    .leader { fill:none; stroke:#9AA0A6; stroke-width:1.2; }
    .disp { fill:none; stroke:#9AA0A6; stroke-width:1.4; }
    .small { font-size:12px; fill:#EAEAEA; }
  </style>

  <!-- lagging wrapped round the calorimeter -->
  <path class="lagging" d="M86,156 V326 H264 V156"/>
  <path class="lagging" d="M96,152 V316 H254 V152"/>

  <!-- calorimeter -->
  <path class="metal" d="M104,160 V312 H246 V160"/>
  <rect class="water" x="106" y="200" width="138" height="110"/>

  <!-- lid -->
  <rect class="lid" x="96" y="150" width="158" height="10" rx="3"/>

  <!-- immersion heater dipping into the water -->
  <path class="heater" d="M152,100 V252"/>
  <path class="heater" d="M152,252 l-10,7 l20,9 l-20,9 l20,9 l-10,7"/>

  <!-- thermometer -->
  <path class="glass" d="M200,110 V268"/>
  <circle class="glass" cx="200" cy="272" r="5" fill="#EAEAEA" fill-opacity="0.5"/>

  <!-- stirrer -->
  <path class="glass" d="M232,120 V286"/>
  <path class="glass" d="M216,290 h32"/>

  <!-- leads from the heater to the joulemeter -->
  <path class="wire" d="M148,100 V70 H306"/>
  <path class="wire" d="M158,100 V80 H306"/>

  <!-- joulemeter -->
  <rect class="metal" x="306" y="52" width="112" height="62" rx="4"/>
  <rect class="disp" x="316" y="66" width="92" height="26" rx="3"/>
  <text class="small" x="362" y="85" text-anchor="middle">energy in J</text>
  <text x="362" y="136" text-anchor="middle">joulemeter</text>

  <text class="heaterlbl" x="140" y="96" text-anchor="end">heater</text>
  <text x="212" y="106">thermometer</text>
  <text x="270" y="150">stirrer</text>
  <path class="leader" d="M268,152 L237,192"/>

  <text class="waterlbl" x="108" y="222">water</text>

  <text class="lagginglbl" x="78" y="246" text-anchor="end">lagging</text>
  <path class="leader" d="M82,242 H90"/>

  <text x="274" y="250">calorimeter</text>
  <path class="leader" d="M270,246 H249"/>
</svg>
