<svg xmlns="http://www.w3.org/2000/svg" viewBox="0 0 480 220" font-family="Segoe UI, Arial, sans-serif">
  <style>
    text { fill:#EAEAEA; }
    .axis { stroke:#EAEAEA; stroke-width:1.6; fill:none; }
    .wave { stroke:#6FB7E0; stroke-width:2.2; fill:none; }
    .wave2 { stroke:#E8B65A; stroke-width:2.2; fill:none; stroke-dasharray:6 4; }
    .rest { stroke:#9AA0A6; stroke-width:1.2; stroke-dasharray:5 4; fill:none; }
    .guide { stroke:#9AA0A6; stroke-width:1; stroke-dasharray:3 3; fill:none; }
    .lead { stroke:#9AA0A6; stroke-width:1.2; fill:none; }
    .dim { stroke:#E8B65A; stroke-width:1.4; fill:none; }
    .lbl { fill:#E8B65A; font-size:13px; }
    .lblb { fill:#6FB7E0; font-size:13px; }
    .tick { stroke:#EAEAEA; stroke-width:1.2; }
    .sm { font-size:12px; }
  </style>

  <defs>
    <marker id="ah" markerWidth="9" markerHeight="9" refX="7" refY="3" orient="auto">
      <path d="M0,0 L7,3 L0,6 Z" fill="#EAEAEA"/>
    </marker>
    <marker id="ahb" markerWidth="9" markerHeight="9" refX="7" refY="3" orient="auto">
      <path d="M0,0 L7,3 L0,6 Z" fill="#6FB7E0"/>
    </marker>
    <marker id="aha" markerWidth="9" markerHeight="9" refX="7" refY="3" orient="auto">
      <path d="M0,0 L7,3 L0,6 Z" fill="#E8B65A"/>
    </marker>
    <marker id="ahm" markerWidth="9" markerHeight="9" refX="7" refY="3" orient="auto">
      <path d="M0,0 L7,3 L0,6 Z" fill="#9AA0A6"/>
    </marker>
  </defs>
  <line x1="70" y1="178" x2="70" y2="62" class="axis" marker-end="url(#ah)"/>
  <line x1="56" y1="120" x2="470" y2="120" class="axis" marker-end="url(#ah)"/>
  <text x="16" y="48" font-size="13">displacement</text>
  <text x="470" y="138" text-anchor="end" font-size="13">distance</text>
  <text x="64" y="135" text-anchor="end" font-size="12">0</text>
  <text x="64" y="84" text-anchor="end" font-size="12" font-style="italic">A</text>
  <line x1="67" y1="80" x2="73" y2="80" class="tick"/>
  <text x="64" y="164" text-anchor="end" font-size="12" font-style="italic">-A</text>
  <line x1="67" y1="160" x2="73" y2="160" class="tick"/>
  <path class="wave" d="M 70.00,120.00 L 72.00,115.44 L 74.00,110.94 L 76.00,106.56 L 78.00,102.35 L 80.00,98.37 L 82.00,94.68 L 84.00,91.31 L 86.00,88.32 L 88.00,85.75 L 90.00,83.61 L 92.00,81.96 L 94.00,80.80 L 96.00,80.15 L 98.00,80.02 L 100.00,80.41 L 102.00,81.31 L 104.00,82.73 L 106.00,84.62 L 108.00,86.98 L 110.00,89.77 L 112.00,92.95 L 114.00,96.49 L 116.00,100.33 L 118.00,104.43 L 120.00,108.73 L 122.00,113.18 L 124.00,117.72 L 126.00,122.28 L 128.00,126.82 L 130.00,131.27 L 132.00,135.57 L 134.00,139.67 L 136.00,143.51 L 138.00,147.05 L 140.00,150.23 L 142.00,153.02 L 144.00,155.38 L 146.00,157.27 L 148.00,158.69 L 150.00,159.59 L 152.00,159.98 L 154.00,159.85 L 156.00,159.20 L 158.00,158.04 L 160.00,156.39 L 162.00,154.25 L 164.00,151.68 L 166.00,148.69 L 168.00,145.32 L 170.00,141.63 L 172.00,137.65 L 174.00,133.44 L 176.00,129.06 L 178.00,124.56 L 180.00,120.00 L 182.00,115.44 L 184.00,110.94 L 186.00,106.56 L 188.00,102.35 L 190.00,98.37 L 192.00,94.68 L 194.00,91.31 L 196.00,88.32 L 198.00,85.75 L 200.00,83.61 L 202.00,81.96 L 204.00,80.80 L 206.00,80.15 L 208.00,80.02 L 210.00,80.41 L 212.00,81.31 L 214.00,82.73 L 216.00,84.62 L 218.00,86.98 L 220.00,89.77 L 222.00,92.95 L 224.00,96.49 L 226.00,100.33 L 228.00,104.43 L 230.00,108.73 L 232.00,113.18 L 234.00,117.72 L 236.00,122.28 L 238.00,126.82 L 240.00,131.27 L 242.00,135.57 L 244.00,139.67 L 246.00,143.51 L 248.00,147.05 L 250.00,150.23 L 252.00,153.02 L 254.00,155.38 L 256.00,157.27 L 258.00,158.69 L 260.00,159.59 L 262.00,159.98 L 264.00,159.85 L 266.00,159.20 L 268.00,158.04 L 270.00,156.39 L 272.00,154.25 L 274.00,151.68 L 276.00,148.69 L 278.00,145.32 L 280.00,141.63 L 282.00,137.65 L 284.00,133.44 L 286.00,129.06 L 288.00,124.56 L 290.00,120.00 L 292.00,115.44 L 294.00,110.94 L 296.00,106.56 L 298.00,102.35 L 300.00,98.37 L 302.00,94.68 L 304.00,91.31 L 306.00,88.32 L 308.00,85.75 L 310.00,83.61 L 312.00,81.96 L 314.00,80.80 L 316.00,80.15 L 318.00,80.02 L 320.00,80.41 L 322.00,81.31 L 324.00,82.73 L 326.00,84.62 L 328.00,86.98 L 330.00,89.77 L 332.00,92.95 L 334.00,96.49 L 336.00,100.33 L 338.00,104.43 L 340.00,108.73 L 342.00,113.18 L 344.00,117.72 L 346.00,122.28 L 348.00,126.82 L 350.00,131.27 L 352.00,135.57 L 354.00,139.67 L 356.00,143.51 L 358.00,147.05 L 360.00,150.23 L 362.00,153.02 L 364.00,155.38 L 366.00,157.27 L 368.00,158.69 L 370.00,159.59 L 372.00,159.98 L 374.00,159.85 L 376.00,159.20 L 378.00,158.04 L 380.00,156.39 L 382.00,154.25 L 384.00,151.68 L 386.00,148.69 L 388.00,145.32 L 390.00,141.63 L 392.00,137.65 L 394.00,133.44 L 396.00,129.06 L 398.00,124.56 L 400.00,120.00 L 402.00,115.44 L 404.00,110.94 L 406.00,106.56 L 408.00,102.35 L 410.00,98.37 L 412.00,94.68 L 414.00,91.31 L 416.00,88.32 L 418.00,85.75 L 420.00,83.61 L 422.00,81.96 L 424.00,80.80 L 426.00,80.15 L 428.00,80.02 L 430.00,80.41 L 432.00,81.31 L 434.00,82.73 L 436.00,84.62 L 438.00,86.98 L 440.00,89.77 L 442.00,92.95 L 444.00,96.49 L 446.00,100.33 L 448.00,104.43 L 450.00,108.73"/>
  <circle cx="97.5" cy="80.0" r="4" fill="#E8B65A"/>
  <text x="97.5" y="72.0" text-anchor="middle" class="lbl">A</text>
  <circle cx="207.5" cy="80.0" r="4" fill="#E8B65A"/>
  <text x="207.5" y="72.0" text-anchor="middle" class="lbl">B</text>
  <circle cx="317.5" cy="80.0" r="4" fill="#E8B65A"/>
  <text x="317.5" y="72.0" text-anchor="middle" class="lbl">C</text>
  <circle cx="152.5" cy="160.0" r="4" fill="#E58F8F"/>
  <text x="152.5" y="176.0" text-anchor="middle" font-size="13" fill="#E58F8F">D</text>
  <text x="152" y="190" text-anchor="middle" font-size="12" fill="#9AA0A6">trough</text>
  <text x="240" y="207" text-anchor="middle" font-size="12.5" fill="#EAEAEA">A, B and C are in phase (same position, same direction); D is not</text>

</svg>
