<svg xmlns="http://www.w3.org/2000/svg" viewBox="0 0 420 348" font-family="Segoe UI, Arial, sans-serif">
  <style>
    text { fill:#EAEAEA; font-size:13px; }
    .part { fill:#EAEAEA; fill-opacity:0.10; stroke:#EAEAEA; stroke-width:1.8; }
    .block { fill:#EAEAEA; fill-opacity:0.16; stroke:#EAEAEA; stroke-width:1.8; }
    .bob { fill:#EAEAEA; fill-opacity:0.16; stroke:#EAEAEA; stroke-width:2.2; }
    .string { stroke:#EAEAEA; stroke-width:1.6; fill:none; }
    .len { stroke:#6FB7E0; stroke-width:2.2; fill:none; }
    .lentx { fill:#6FB7E0; font-size:16px; }
    .guide { stroke:#9AA0A6; stroke-width:1.1; stroke-dasharray:4 3; fill:none; }
    .tick { stroke:#EAEAEA; stroke-width:1.1; }
    .num { fill:#9AA0A6; font-size:11px; }
    .lbl { fill:#EAEAEA; font-size:12px; }
    .sub { fill:#9AA0A6; font-size:12px; }
    .lead { stroke:#9AA0A6; stroke-width:1.1; fill:none; }
  </style>
  <defs><marker id="bl10" markerWidth="9" markerHeight="9" refX="7" refY="3" orient="auto"><path d="M0,0 L7,3 L0,6 Z" fill="#6FB7E0"/></marker><marker id="bl10s" markerWidth="9" markerHeight="9" refX="0" refY="3" orient="auto"><path d="M7,0 L0,3 L7,6 Z" fill="#6FB7E0"/></marker></defs>
  <rect class="part" x="18" y="306" width="76" height="12" rx="3"/>
  <rect class="part" x="40" y="66" width="9" height="240"/>
  <rect class="part" x="49" y="72" width="60" height="24" rx="3"/>
  <rect class="part" x="109" y="78" width="46" height="10"/>
  <rect class="block" x="155" y="56" width="96" height="26" rx="2"/>
  <rect class="block" x="155" y="84" width="96" height="26" rx="2"/>
  <path class="string" d="M203,110 L203,272"/>
  <circle class="bob" cx="203" cy="290" r="18"/>
  <path class="guide" d="M205,110 L248,110"/>
  <path class="guide" d="M221,290 L248,290"/>
  <path class="len" d="M240,110 L240,290" marker-start="url(#bl10s)" marker-end="url(#bl10)"/>
  <text class="lentx" x="254" y="204">l</text>
  <rect class="part" x="326" y="86" width="26" height="250" rx="3"/>
  <line class="tick" x1="326" y1="98" x2="342" y2="98"/>
  <text class="num" x="356" y="102">0</text>
  <line class="tick" x1="326" y1="110" x2="336" y2="110"/>
  <line class="tick" x1="326" y1="122" x2="336" y2="122"/>
  <line class="tick" x1="326" y1="134" x2="336" y2="134"/>
  <line class="tick" x1="326" y1="146" x2="336" y2="146"/>
  <line class="tick" x1="326" y1="158" x2="342" y2="158"/>
  <text class="num" x="356" y="162">10</text>
  <line class="tick" x1="326" y1="170" x2="336" y2="170"/>
  <line class="tick" x1="326" y1="182" x2="336" y2="182"/>
  <line class="tick" x1="326" y1="194" x2="336" y2="194"/>
  <line class="tick" x1="326" y1="206" x2="336" y2="206"/>
  <line class="tick" x1="326" y1="218" x2="342" y2="218"/>
  <text class="num" x="356" y="222">20</text>
  <line class="tick" x1="326" y1="230" x2="336" y2="230"/>
  <line class="tick" x1="326" y1="242" x2="336" y2="242"/>
  <line class="tick" x1="326" y1="254" x2="336" y2="254"/>
  <line class="tick" x1="326" y1="266" x2="336" y2="266"/>
  <line class="tick" x1="326" y1="278" x2="342" y2="278"/>
  <text class="num" x="356" y="282">30</text>
  <line class="tick" x1="326" y1="290" x2="336" y2="290"/>
  <line class="tick" x1="326" y1="302" x2="336" y2="302"/>
  <line class="tick" x1="326" y1="314" x2="336" y2="314"/>
  <line class="tick" x1="326" y1="326" x2="336" y2="326"/>
  <text class="lbl" x="150" y="40" text-anchor="end">wooden blocks</text>
  <path class="lead" d="M152,36 L188,54"/>
  <text class="lbl" x="290" y="52" text-anchor="middle">metre rule</text>
  <path class="lead" d="M320,48 L340,84"/>
  <text class="sub" x="128" y="296" text-anchor="end">bob</text>
  <path class="lead" d="M132,291 L183,290"/>
  <text class="sub" x="128" y="200" text-anchor="end">string</text>
  <path class="lead" d="M132,196 L201,190"/>
</svg>
