<svg xmlns="http://www.w3.org/2000/svg" viewBox="0 0 420 320" font-family="Segoe UI, Arial, sans-serif">
  <style>
    text { fill:#EAEAEA; font-size:12px; }
    .glass { fill:none; stroke:#EAEAEA; stroke-width:2; }
    .merc { fill:#9AA0A6; opacity:0.55; }
    .lead { stroke:#9AA0A6; stroke-width:1; }
    .height { stroke:#E8B65A; stroke-width:1.6; }
    .arrow { stroke:#E58F8F; stroke-width:2; }
    .lbl { font-size:11px; }
  </style>
  <!-- reservoir -->
  <path class="glass" d="M150,300 L150,270 Q150,260 160,260 L280,260 Q290,260 290,270 L290,300"/>
  <rect class="merc" x="152" y="268" width="136" height="30"/>
  <!-- tube -->
  <path class="glass" d="M200,268 L200,70 Q200,58 212,58 Q224,58 224,70 L224,268"/>
  <!-- mercury column in tube -->
  <rect class="merc" x="201" y="100" width="22" height="168"/>
  <!-- vacuum at top -->
  <text x="248" y="80" class="lbl">vacuum</text>
  <text x="248" y="94" class="lbl">(zero pressure)</text>
  <line class="lead" x1="218" y1="82" x2="240" y2="80"/>

  <!-- height marker 76 cm -->
  <line class="height" x1="160" y1="100" x2="160" y2="283"/>
  <line class="height" x1="155" y1="100" x2="165" y2="100"/>
  <line class="height" x1="155" y1="283" x2="165" y2="283"/>
  <text x="100" y="195" class="lbl" fill="#E8B65A">76 cm</text>
  <text x="100" y="210" class="lbl" fill="#E8B65A">(760 mm)</text>

  <!-- atmospheric pressure pushing on reservoir -->
  <line class="arrow" x1="265" y1="240" x2="265" y2="262" marker-end="url(#ba)"/>
  <text x="278" y="248" class="lbl">atmospheric</text>
  <text x="278" y="262" class="lbl">pressure</text>

  <text x="120" y="300" class="lbl">mercury reservoir</text>
  <defs>
    <marker id="ba" markerWidth="7" markerHeight="7" refX="3.5" refY="6" orient="auto"><path d="M0,0 L3.5,7 L7,0 Z" fill="#E58F8F"/></marker>
  </defs>
</svg>
