<svg xmlns="http://www.w3.org/2000/svg" viewBox="0 0 460 230" font-family="Segoe UI, Arial, sans-serif">
  <defs>
    <marker id="ao" markerWidth="10" markerHeight="10" refX="6" refY="3" orient="auto"><path d="M0,0 L8,3 L0,6 Z" fill="#E8B65A"/></marker>
    <marker id="ar" markerWidth="10" markerHeight="10" refX="6" refY="3" orient="auto"><path d="M0,0 L8,3 L0,6 Z" fill="#6FB7E0"/></marker>
    <marker id="ai" markerWidth="10" markerHeight="10" refX="6" refY="3" orient="auto"><path d="M0,0 L8,3 L0,6 Z" fill="#86C98B"/></marker>
  </defs>
  <style>
    text { fill:#EAEAEA; }
    .axis { stroke:#9AA0A6; stroke-width:1; }
    .lens { fill:#6FB7E0; fill-opacity:0.18; stroke:#6FB7E0; stroke-width:1.5; }
    .obj { stroke:#E8B65A; stroke-width:2; fill:none; }
    .img { stroke:#86C98B; stroke-width:2; fill:none; }
    .r1 { stroke:#6FB7E0; stroke-width:1.5; fill:none; }
    .r2 { stroke:#E8B65A; stroke-width:1.5; fill:none; }
    .pf { fill:#EAEAEA; }
  </style>
  <text data-step="3" x="230" y="22" text-anchor="middle" font-size="13">Object beyond 2F &#8594; real, inverted, diminished</text>
  <line data-step="1" class="axis" x1="30" y1="120" x2="440" y2="120"/>
  <path data-step="1" class="lens" d="M250,58 Q276,120 250,182 Q224,120 250,58 Z"/>
  <path data-step="1" class="obj" marker-end="url(#ao)" d="M70,120 L70,73"/>
  <path data-step="1" class="r1" d="M70,70 L250,70"/>
  <path data-step="1" class="r1" marker-end="url(#ar)" d="M250,70 L425,195"/>
  <path data-step="1" class="r2" marker-end="url(#ao)" d="M70,70 L425,169"/>
  <path data-step="2" class="img" marker-end="url(#ai)" d="M365,120 L365,150"/>
  <circle data-step="2" class="pf" cx="180" cy="120" r="2.6"/><text data-step="3" x="180" y="138" text-anchor="middle" font-size="12" font-style="italic">F</text>
  <circle data-step="2" class="pf" cx="320" cy="120" r="2.6"/><text data-step="3" x="320" y="138" text-anchor="middle" font-size="12" font-style="italic">F</text>
  <circle data-step="2" class="pf" cx="110" cy="120" r="2.6"/><text data-step="4" x="110" y="138" text-anchor="middle" font-size="11">2F</text>
  <circle data-step="2" class="pf" cx="390" cy="120" r="2.6"/><text data-step="4" x="390" y="138" text-anchor="middle" font-size="11">2F</text>
</svg>
