<svg xmlns="http://www.w3.org/2000/svg" viewBox="0 0 420 392" font-family="Segoe UI, Arial, sans-serif">
  <style>
    text { fill:#EAEAEA; font-size:13px; }
    .part { fill:#EAEAEA; fill-opacity:0.10; stroke:#EAEAEA; stroke-width:1.8; }
    .bob { fill:#EAEAEA; fill-opacity:0.16; stroke:#EAEAEA; stroke-width:2.2; }
    .string { stroke:#EAEAEA; stroke-width:1.6; fill:none; }
    .len { stroke:#6FB7E0; stroke-width:2.2; fill:none; }
    .lentx { fill:#6FB7E0; font-size:16px; }
    .guide { stroke:#9AA0A6; stroke-width:1.1; stroke-dasharray:4 3; fill:none; }
    .tick { stroke:#EAEAEA; stroke-width:1.1; }
    .num { fill:#9AA0A6; font-size:11px; }
    .lbl { fill:#EAEAEA; font-size:12px; }
    .sub { fill:#9AA0A6; font-size:12px; }
    .lead { stroke:#9AA0A6; stroke-width:1.1; fill:none; }
    .good { fill:#86C98B; font-size:12px; }
  </style>
  <defs><marker id="bl7" markerWidth="9" markerHeight="9" refX="7" refY="3" orient="auto"><path d="M0,0 L7,3 L0,6 Z" fill="#6FB7E0"/></marker><marker id="bl7s" markerWidth="9" markerHeight="9" refX="0" refY="3" orient="auto"><path d="M7,0 L0,3 L7,6 Z" fill="#6FB7E0"/></marker></defs>
  <rect data-step="1" class="part" x="60" y="340" width="140" height="14" rx="3"/>
  <rect data-step="1" class="part" x="124" y="60" width="9" height="280"/>
  <rect data-step="1" class="part" x="116" y="80" width="44" height="26" rx="3"/>
  <rect data-step="1" class="part" x="160" y="88" width="52" height="10"/>
  <path data-step="1" class="part" d="M212,78 L240,84 L240,92 L212,92 Z"/>
  <path data-step="1" class="part" d="M212,94 L240,94 L240,102 L212,108 Z"/>
  <path data-step="1" class="string" d="M224,100 L224,254"/>
  <circle data-step="1" class="bob" cx="224" cy="272" r="18"/>
  <path data-step="1" class="guide" d="M226,100 L266,100"/>
  <path data-step="1" class="guide" d="M242,272 L266,272"/>
  <path data-step="1" class="len" d="M258,100 L258,272" marker-start="url(#bl7s)" marker-end="url(#bl7)"/>
  <text data-step="3" class="lentx" x="272" y="192">l</text>
  <rect data-step="1" class="part" x="326" y="70" width="26" height="290" rx="3"/>
  <line data-step="1" class="tick" x1="326" y1="82" x2="342" y2="82"/>
  <text data-step="3" class="num" x="356" y="86">0</text>
  <line data-step="1" class="tick" x1="326" y1="94" x2="336" y2="94"/>
  <line data-step="1" class="tick" x1="326" y1="106" x2="336" y2="106"/>
  <line data-step="1" class="tick" x1="326" y1="118" x2="336" y2="118"/>
  <line data-step="1" class="tick" x1="326" y1="130" x2="336" y2="130"/>
  <line data-step="1" class="tick" x1="326" y1="142" x2="342" y2="142"/>
  <text data-step="3" class="num" x="356" y="146">10</text>
  <line data-step="1" class="tick" x1="326" y1="154" x2="336" y2="154"/>
  <line data-step="1" class="tick" x1="326" y1="166" x2="336" y2="166"/>
  <line data-step="2" class="tick" x1="326" y1="178" x2="336" y2="178"/>
  <line data-step="2" class="tick" x1="326" y1="190" x2="336" y2="190"/>
  <line data-step="2" class="tick" x1="326" y1="202" x2="342" y2="202"/>
  <text data-step="3" class="num" x="356" y="206">20</text>
  <line data-step="2" class="tick" x1="326" y1="214" x2="336" y2="214"/>
  <line data-step="2" class="tick" x1="326" y1="226" x2="336" y2="226"/>
  <line data-step="2" class="tick" x1="326" y1="238" x2="336" y2="238"/>
  <line data-step="2" class="tick" x1="326" y1="250" x2="336" y2="250"/>
  <line data-step="2" class="tick" x1="326" y1="262" x2="342" y2="262"/>
  <text data-step="3" class="num" x="356" y="266">30</text>
  <line data-step="2" class="tick" x1="326" y1="274" x2="336" y2="274"/>
  <line data-step="2" class="tick" x1="326" y1="286" x2="336" y2="286"/>
  <line data-step="2" class="tick" x1="326" y1="298" x2="336" y2="298"/>
  <line data-step="2" class="tick" x1="326" y1="310" x2="336" y2="310"/>
  <line data-step="2" class="tick" x1="326" y1="322" x2="342" y2="322"/>
  <text data-step="3" class="num" x="356" y="326">40</text>
  <line data-step="2" class="tick" x1="326" y1="334" x2="336" y2="334"/>
  <line data-step="2" class="tick" x1="326" y1="346" x2="336" y2="346"/>
  <text data-step="4" class="lbl" x="246" y="66">split cork</text>
  <path data-step="2" class="lead" d="M244,72 L230,78"/>
  <text data-step="4" class="lbl" x="344" y="52" text-anchor="middle">metre rule</text>
  <path data-step="2" class="lead" d="M344,58 L344,70"/>
  <path data-step="2" class="string" d="M219,272 L229,272 M224,267 L224,277"/>
  <text data-step="4" class="sub" x="224" y="322" text-anchor="middle">centre of bob</text>
  <path data-step="2" class="lead" d="M224,312 L224,292"/>
  <text data-step="4" class="sub" x="118" y="312" text-anchor="end">retort stand</text>
  <path data-step="2" class="lead" d="M120,308 L126,302"/>
  <text data-step="4" class="good" x="210" y="380" text-anchor="middle">keep the rule vertical, read it at eye level</text>
</svg>
