<svg xmlns="http://www.w3.org/2000/svg" viewBox="0 0 480 255" font-family="Segoe UI, Arial, sans-serif">
  <style>
    text { fill:#EAEAEA; }
    .axis { stroke:#EAEAEA; stroke-width:1.6; fill:none; }
    .wave { stroke:#6FB7E0; stroke-width:2.2; fill:none; }
    .wave2 { stroke:#E8B65A; stroke-width:2.2; fill:none; stroke-dasharray:6 4; }
    .rest { stroke:#9AA0A6; stroke-width:1.2; stroke-dasharray:5 4; fill:none; }
    .guide { stroke:#9AA0A6; stroke-width:1; stroke-dasharray:3 3; fill:none; }
    .lead { stroke:#9AA0A6; stroke-width:1.2; fill:none; }
    .dim { stroke:#E8B65A; stroke-width:1.4; fill:none; }
    .lbl { fill:#E8B65A; font-size:13px; }
    .lblb { fill:#6FB7E0; font-size:13px; }
    .tick { stroke:#EAEAEA; stroke-width:1.2; }
    .sm { font-size:12px; }
  </style>

  <defs>
    <marker id="ah" markerWidth="9" markerHeight="9" refX="7" refY="3" orient="auto">
      <path d="M0,0 L7,3 L0,6 Z" fill="#EAEAEA"/>
    </marker>
    <marker id="ahb" markerWidth="9" markerHeight="9" refX="7" refY="3" orient="auto">
      <path d="M0,0 L7,3 L0,6 Z" fill="#6FB7E0"/>
    </marker>
    <marker id="aha" markerWidth="9" markerHeight="9" refX="7" refY="3" orient="auto">
      <path d="M0,0 L7,3 L0,6 Z" fill="#E8B65A"/>
    </marker>
    <marker id="ahm" markerWidth="9" markerHeight="9" refX="7" refY="3" orient="auto">
      <path d="M0,0 L7,3 L0,6 Z" fill="#9AA0A6"/>
    </marker>
  </defs>
  <line x1="200" y1="26" x2="260" y2="26" class="axis" marker-start="url(#ah)" marker-end="url(#ah)" stroke-width="1.3"/>
  <text x="230" y="18" text-anchor="middle" font-size="11.5">movement of balls</text>
  <circle cx="90" cy="60" r="2.6" fill="#86C98B" opacity="0.5"/>
  <circle cx="90" cy="75" r="2.6" fill="#86C98B" opacity="0.5"/>
  <circle cx="90" cy="90" r="2.6" fill="#86C98B" opacity="0.5"/>
  <circle cx="90" cy="105" r="2.6" fill="#86C98B" opacity="0.5"/>
  <circle cx="90" cy="120" r="2.6" fill="#86C98B" opacity="0.5"/>
  <circle cx="90" cy="135" r="2.6" fill="#86C98B" opacity="0.5"/>
  <circle cx="90" cy="150" r="2.6" fill="#86C98B" opacity="0.5"/>
  <circle cx="90" cy="165" r="2.6" fill="#86C98B" opacity="0.5"/>
  <circle cx="90" cy="180" r="2.6" fill="#86C98B" opacity="0.5"/>
  <circle cx="90" cy="195" r="2.6" fill="#86C98B" opacity="0.5"/>
  <circle cx="116" cy="60" r="2.6" fill="#86C98B" opacity="0.75"/>
  <circle cx="120" cy="60" r="2.6" fill="#86C98B" opacity="0.75"/>
  <circle cx="124" cy="60" r="2.6" fill="#86C98B" opacity="0.75"/>
  <circle cx="116" cy="75" r="2.6" fill="#86C98B" opacity="0.75"/>
  <circle cx="120" cy="75" r="2.6" fill="#86C98B" opacity="0.75"/>
  <circle cx="124" cy="75" r="2.6" fill="#86C98B" opacity="0.75"/>
  <circle cx="116" cy="90" r="2.6" fill="#86C98B" opacity="0.75"/>
  <circle cx="120" cy="90" r="2.6" fill="#86C98B" opacity="0.75"/>
  <circle cx="124" cy="90" r="2.6" fill="#86C98B" opacity="0.75"/>
  <circle cx="116" cy="105" r="2.6" fill="#86C98B" opacity="0.75"/>
  <circle cx="120" cy="105" r="2.6" fill="#86C98B" opacity="0.75"/>
  <circle cx="124" cy="105" r="2.6" fill="#86C98B" opacity="0.75"/>
  <circle cx="116" cy="120" r="2.6" fill="#86C98B" opacity="0.75"/>
  <circle cx="120" cy="120" r="2.6" fill="#86C98B" opacity="0.75"/>
  <circle cx="124" cy="120" r="2.6" fill="#86C98B" opacity="0.75"/>
  <circle cx="116" cy="135" r="2.6" fill="#86C98B" opacity="0.75"/>
  <circle cx="120" cy="135" r="2.6" fill="#86C98B" opacity="0.75"/>
  <circle cx="124" cy="135" r="2.6" fill="#86C98B" opacity="0.75"/>
  <circle cx="116" cy="150" r="2.6" fill="#86C98B" opacity="0.75"/>
  <circle cx="120" cy="150" r="2.6" fill="#86C98B" opacity="0.75"/>
  <circle cx="124" cy="150" r="2.6" fill="#86C98B" opacity="0.75"/>
  <circle cx="116" cy="165" r="2.6" fill="#86C98B" opacity="0.75"/>
  <circle cx="120" cy="165" r="2.6" fill="#86C98B" opacity="0.75"/>
  <circle cx="124" cy="165" r="2.6" fill="#86C98B" opacity="0.75"/>
  <circle cx="116" cy="180" r="2.6" fill="#86C98B" opacity="0.75"/>
  <circle cx="120" cy="180" r="2.6" fill="#86C98B" opacity="0.75"/>
  <circle cx="124" cy="180" r="2.6" fill="#86C98B" opacity="0.75"/>
  <circle cx="116" cy="195" r="2.6" fill="#86C98B" opacity="0.75"/>
  <circle cx="120" cy="195" r="2.6" fill="#86C98B" opacity="0.75"/>
  <circle cx="124" cy="195" r="2.6" fill="#86C98B" opacity="0.75"/>
  <circle cx="150" cy="60" r="2.6" fill="#86C98B" opacity="0.5"/>
  <circle cx="150" cy="75" r="2.6" fill="#86C98B" opacity="0.5"/>
  <circle cx="150" cy="90" r="2.6" fill="#86C98B" opacity="0.5"/>
  <circle cx="150" cy="105" r="2.6" fill="#86C98B" opacity="0.5"/>
  <circle cx="150" cy="120" r="2.6" fill="#86C98B" opacity="0.5"/>
  <circle cx="150" cy="135" r="2.6" fill="#86C98B" opacity="0.5"/>
  <circle cx="150" cy="150" r="2.6" fill="#86C98B" opacity="0.5"/>
  <circle cx="150" cy="165" r="2.6" fill="#86C98B" opacity="0.5"/>
  <circle cx="150" cy="180" r="2.6" fill="#86C98B" opacity="0.5"/>
  <circle cx="150" cy="195" r="2.6" fill="#86C98B" opacity="0.5"/>
  <circle cx="186" cy="60" r="2.6" fill="#86C98B" opacity="0.75"/>
  <circle cx="190" cy="60" r="2.6" fill="#86C98B" opacity="0.75"/>
  <circle cx="194" cy="60" r="2.6" fill="#86C98B" opacity="0.75"/>
  <circle cx="186" cy="75" r="2.6" fill="#86C98B" opacity="0.75"/>
  <circle cx="190" cy="75" r="2.6" fill="#86C98B" opacity="0.75"/>
  <circle cx="194" cy="75" r="2.6" fill="#86C98B" opacity="0.75"/>
  <circle cx="186" cy="90" r="2.6" fill="#86C98B" opacity="0.75"/>
  <circle cx="190" cy="90" r="2.6" fill="#86C98B" opacity="0.75"/>
  <circle cx="194" cy="90" r="2.6" fill="#86C98B" opacity="0.75"/>
  <circle cx="186" cy="105" r="2.6" fill="#86C98B" opacity="0.75"/>
  <circle cx="190" cy="105" r="2.6" fill="#86C98B" opacity="0.75"/>
  <circle cx="194" cy="105" r="2.6" fill="#86C98B" opacity="0.75"/>
  <circle cx="186" cy="120" r="2.6" fill="#86C98B" opacity="0.75"/>
  <circle cx="190" cy="120" r="2.6" fill="#86C98B" opacity="0.75"/>
  <circle cx="194" cy="120" r="2.6" fill="#86C98B" opacity="0.75"/>
  <circle cx="186" cy="135" r="2.6" fill="#86C98B" opacity="0.75"/>
  <circle cx="190" cy="135" r="2.6" fill="#86C98B" opacity="0.75"/>
  <circle cx="194" cy="135" r="2.6" fill="#86C98B" opacity="0.75"/>
  <circle cx="186" cy="150" r="2.6" fill="#86C98B" opacity="0.75"/>
  <circle cx="190" cy="150" r="2.6" fill="#86C98B" opacity="0.75"/>
  <circle cx="194" cy="150" r="2.6" fill="#86C98B" opacity="0.75"/>
  <circle cx="186" cy="165" r="2.6" fill="#86C98B" opacity="0.75"/>
  <circle cx="190" cy="165" r="2.6" fill="#86C98B" opacity="0.75"/>
  <circle cx="194" cy="165" r="2.6" fill="#86C98B" opacity="0.75"/>
  <circle cx="186" cy="180" r="2.6" fill="#86C98B" opacity="0.75"/>
  <circle cx="190" cy="180" r="2.6" fill="#86C98B" opacity="0.75"/>
  <circle cx="194" cy="180" r="2.6" fill="#86C98B" opacity="0.75"/>
  <circle cx="186" cy="195" r="2.6" fill="#86C98B" opacity="0.75"/>
  <circle cx="190" cy="195" r="2.6" fill="#86C98B" opacity="0.75"/>
  <circle cx="194" cy="195" r="2.6" fill="#86C98B" opacity="0.75"/>
  <circle cx="230" cy="60" r="2.6" fill="#86C98B" opacity="0.5"/>
  <circle cx="230" cy="75" r="2.6" fill="#86C98B" opacity="0.5"/>
  <circle cx="230" cy="90" r="2.6" fill="#86C98B" opacity="0.5"/>
  <circle cx="230" cy="105" r="2.6" fill="#86C98B" opacity="0.5"/>
  <circle cx="230" cy="120" r="2.6" fill="#86C98B" opacity="0.5"/>
  <circle cx="230" cy="135" r="2.6" fill="#86C98B" opacity="0.5"/>
  <circle cx="230" cy="150" r="2.6" fill="#86C98B" opacity="0.5"/>
  <circle cx="230" cy="165" r="2.6" fill="#86C98B" opacity="0.5"/>
  <circle cx="230" cy="180" r="2.6" fill="#86C98B" opacity="0.5"/>
  <circle cx="230" cy="195" r="2.6" fill="#86C98B" opacity="0.5"/>
  <circle cx="266" cy="60" r="2.6" fill="#86C98B" opacity="0.75"/>
  <circle cx="270" cy="60" r="2.6" fill="#86C98B" opacity="0.75"/>
  <circle cx="274" cy="60" r="2.6" fill="#86C98B" opacity="0.75"/>
  <circle cx="266" cy="75" r="2.6" fill="#86C98B" opacity="0.75"/>
  <circle cx="270" cy="75" r="2.6" fill="#86C98B" opacity="0.75"/>
  <circle cx="274" cy="75" r="2.6" fill="#86C98B" opacity="0.75"/>
  <circle cx="266" cy="90" r="2.6" fill="#86C98B" opacity="0.75"/>
  <circle cx="270" cy="90" r="2.6" fill="#86C98B" opacity="0.75"/>
  <circle cx="274" cy="90" r="2.6" fill="#86C98B" opacity="0.75"/>
  <circle cx="266" cy="105" r="2.6" fill="#86C98B" opacity="0.75"/>
  <circle cx="270" cy="105" r="2.6" fill="#86C98B" opacity="0.75"/>
  <circle cx="274" cy="105" r="2.6" fill="#86C98B" opacity="0.75"/>
  <circle cx="266" cy="120" r="2.6" fill="#86C98B" opacity="0.75"/>
  <circle cx="270" cy="120" r="2.6" fill="#86C98B" opacity="0.75"/>
  <circle cx="274" cy="120" r="2.6" fill="#86C98B" opacity="0.75"/>
  <circle cx="266" cy="135" r="2.6" fill="#86C98B" opacity="0.75"/>
  <circle cx="270" cy="135" r="2.6" fill="#86C98B" opacity="0.75"/>
  <circle cx="274" cy="135" r="2.6" fill="#86C98B" opacity="0.75"/>
  <circle cx="266" cy="150" r="2.6" fill="#86C98B" opacity="0.75"/>
  <circle cx="270" cy="150" r="2.6" fill="#86C98B" opacity="0.75"/>
  <circle cx="274" cy="150" r="2.6" fill="#86C98B" opacity="0.75"/>
  <circle cx="266" cy="165" r="2.6" fill="#86C98B" opacity="0.75"/>
  <circle cx="270" cy="165" r="2.6" fill="#86C98B" opacity="0.75"/>
  <circle cx="274" cy="165" r="2.6" fill="#86C98B" opacity="0.75"/>
  <circle cx="266" cy="180" r="2.6" fill="#86C98B" opacity="0.75"/>
  <circle cx="270" cy="180" r="2.6" fill="#86C98B" opacity="0.75"/>
  <circle cx="274" cy="180" r="2.6" fill="#86C98B" opacity="0.75"/>
  <circle cx="266" cy="195" r="2.6" fill="#86C98B" opacity="0.75"/>
  <circle cx="270" cy="195" r="2.6" fill="#86C98B" opacity="0.75"/>
  <circle cx="274" cy="195" r="2.6" fill="#86C98B" opacity="0.75"/>
  <circle cx="310" cy="60" r="2.6" fill="#86C98B" opacity="0.5"/>
  <circle cx="310" cy="75" r="2.6" fill="#86C98B" opacity="0.5"/>
  <circle cx="310" cy="90" r="2.6" fill="#86C98B" opacity="0.5"/>
  <circle cx="310" cy="105" r="2.6" fill="#86C98B" opacity="0.5"/>
  <circle cx="310" cy="120" r="2.6" fill="#86C98B" opacity="0.5"/>
  <circle cx="310" cy="135" r="2.6" fill="#86C98B" opacity="0.5"/>
  <circle cx="310" cy="150" r="2.6" fill="#86C98B" opacity="0.5"/>
  <circle cx="310" cy="165" r="2.6" fill="#86C98B" opacity="0.5"/>
  <circle cx="310" cy="180" r="2.6" fill="#86C98B" opacity="0.5"/>
  <circle cx="310" cy="195" r="2.6" fill="#86C98B" opacity="0.5"/>
  <circle cx="341" cy="60" r="2.6" fill="#86C98B" opacity="0.75"/>
  <circle cx="345" cy="60" r="2.6" fill="#86C98B" opacity="0.75"/>
  <circle cx="349" cy="60" r="2.6" fill="#86C98B" opacity="0.75"/>
  <circle cx="341" cy="75" r="2.6" fill="#86C98B" opacity="0.75"/>
  <circle cx="345" cy="75" r="2.6" fill="#86C98B" opacity="0.75"/>
  <circle cx="349" cy="75" r="2.6" fill="#86C98B" opacity="0.75"/>
  <circle cx="341" cy="90" r="2.6" fill="#86C98B" opacity="0.75"/>
  <circle cx="345" cy="90" r="2.6" fill="#86C98B" opacity="0.75"/>
  <circle cx="349" cy="90" r="2.6" fill="#86C98B" opacity="0.75"/>
  <circle cx="341" cy="105" r="2.6" fill="#86C98B" opacity="0.75"/>
  <circle cx="345" cy="105" r="2.6" fill="#86C98B" opacity="0.75"/>
  <circle cx="349" cy="105" r="2.6" fill="#86C98B" opacity="0.75"/>
  <circle cx="341" cy="120" r="2.6" fill="#86C98B" opacity="0.75"/>
  <circle cx="345" cy="120" r="2.6" fill="#86C98B" opacity="0.75"/>
  <circle cx="349" cy="120" r="2.6" fill="#86C98B" opacity="0.75"/>
  <circle cx="341" cy="135" r="2.6" fill="#86C98B" opacity="0.75"/>
  <circle cx="345" cy="135" r="2.6" fill="#86C98B" opacity="0.75"/>
  <circle cx="349" cy="135" r="2.6" fill="#86C98B" opacity="0.75"/>
  <circle cx="341" cy="150" r="2.6" fill="#86C98B" opacity="0.75"/>
  <circle cx="345" cy="150" r="2.6" fill="#86C98B" opacity="0.75"/>
  <circle cx="349" cy="150" r="2.6" fill="#86C98B" opacity="0.75"/>
  <circle cx="341" cy="165" r="2.6" fill="#86C98B" opacity="0.75"/>
  <circle cx="345" cy="165" r="2.6" fill="#86C98B" opacity="0.75"/>
  <circle cx="349" cy="165" r="2.6" fill="#86C98B" opacity="0.75"/>
  <circle cx="341" cy="180" r="2.6" fill="#86C98B" opacity="0.75"/>
  <circle cx="345" cy="180" r="2.6" fill="#86C98B" opacity="0.75"/>
  <circle cx="349" cy="180" r="2.6" fill="#86C98B" opacity="0.75"/>
  <circle cx="341" cy="195" r="2.6" fill="#86C98B" opacity="0.75"/>
  <circle cx="345" cy="195" r="2.6" fill="#86C98B" opacity="0.75"/>
  <circle cx="349" cy="195" r="2.6" fill="#86C98B" opacity="0.75"/>
  <circle cx="385" cy="60" r="2.6" fill="#86C98B" opacity="0.5"/>
  <circle cx="385" cy="75" r="2.6" fill="#86C98B" opacity="0.5"/>
  <circle cx="385" cy="90" r="2.6" fill="#86C98B" opacity="0.5"/>
  <circle cx="385" cy="105" r="2.6" fill="#86C98B" opacity="0.5"/>
  <circle cx="385" cy="120" r="2.6" fill="#86C98B" opacity="0.5"/>
  <circle cx="385" cy="135" r="2.6" fill="#86C98B" opacity="0.5"/>
  <circle cx="385" cy="150" r="2.6" fill="#86C98B" opacity="0.5"/>
  <circle cx="385" cy="165" r="2.6" fill="#86C98B" opacity="0.5"/>
  <circle cx="385" cy="180" r="2.6" fill="#86C98B" opacity="0.5"/>
  <circle cx="385" cy="195" r="2.6" fill="#86C98B" opacity="0.5"/>
  <text x="120" y="52" text-anchor="middle" font-size="12" fill="#E8B65A">P</text>
  <line x1="200" y1="225" x2="360" y2="225" class="axis" marker-end="url(#ah)"/>
  <text x="280" y="243" text-anchor="middle" font-size="12">wave motion</text>

</svg>
