<svg xmlns="http://www.w3.org/2000/svg" viewBox="0 0 480 215" font-family="Segoe UI, Arial, sans-serif">
  <style>
    text { fill:#EAEAEA; }
    .axis { stroke:#EAEAEA; stroke-width:1.6; fill:none; }
    .wave { stroke:#6FB7E0; stroke-width:2.2; fill:none; }
    .wave2 { stroke:#E8B65A; stroke-width:2.2; fill:none; stroke-dasharray:6 4; }
    .rest { stroke:#9AA0A6; stroke-width:1.2; stroke-dasharray:5 4; fill:none; }
    .guide { stroke:#9AA0A6; stroke-width:1; stroke-dasharray:3 3; fill:none; }
    .lead { stroke:#9AA0A6; stroke-width:1.2; fill:none; }
    .dim { stroke:#E8B65A; stroke-width:1.4; fill:none; }
    .lbl { fill:#E8B65A; font-size:13px; }
    .lblb { fill:#6FB7E0; font-size:13px; }
    .tick { stroke:#EAEAEA; stroke-width:1.2; }
    .sm { font-size:12px; }
  </style>

  <defs>
    <marker id="ah" markerWidth="9" markerHeight="9" refX="7" refY="3" orient="auto">
      <path d="M0,0 L7,3 L0,6 Z" fill="#EAEAEA"/>
    </marker>
    <marker id="ahb" markerWidth="9" markerHeight="9" refX="7" refY="3" orient="auto">
      <path d="M0,0 L7,3 L0,6 Z" fill="#6FB7E0"/>
    </marker>
    <marker id="aha" markerWidth="9" markerHeight="9" refX="7" refY="3" orient="auto">
      <path d="M0,0 L7,3 L0,6 Z" fill="#E8B65A"/>
    </marker>
    <marker id="ahm" markerWidth="9" markerHeight="9" refX="7" refY="3" orient="auto">
      <path d="M0,0 L7,3 L0,6 Z" fill="#9AA0A6"/>
    </marker>
  </defs>
  <line x1="90" y1="173" x2="90" y2="47" class="axis" marker-end="url(#ah)"/>
  <line x1="76" y1="110" x2="450" y2="110" class="axis" marker-end="url(#ah)"/>
  <text x="84" y="43" text-anchor="end" font-size="12">displacement</text>
  <text x="450" y="128" text-anchor="end" font-size="12">time</text>
  <text x="84" y="125" text-anchor="end" font-size="12">0</text>
  <text x="84" y="69" text-anchor="end" font-size="12" font-style="italic">A</text>
  <line x1="87" y1="65" x2="93" y2="65" class="tick"/>
  <text x="84" y="159" text-anchor="end" font-size="12" font-style="italic">-A</text>
  <line x1="87" y1="155" x2="93" y2="155" class="tick"/>
  <path class="wave" d="M 90.00,110.00 L 92.00,106.23 L 94.00,102.50 L 96.00,98.81 L 98.00,95.20 L 100.00,91.70 L 102.00,88.32 L 104.00,85.10 L 106.00,82.05 L 108.00,79.20 L 110.00,76.56 L 112.00,74.16 L 114.00,72.01 L 116.00,70.12 L 118.00,68.52 L 120.00,67.20 L 122.00,66.19 L 124.00,65.48 L 126.00,65.09 L 128.00,65.01 L 130.00,65.25 L 132.00,65.80 L 134.00,66.66 L 136.00,67.82 L 138.00,69.28 L 140.00,71.03 L 142.00,73.05 L 144.00,75.33 L 146.00,77.85 L 148.00,80.60 L 150.00,83.55 L 152.00,86.69 L 154.00,89.99 L 156.00,93.43 L 158.00,96.99 L 160.00,100.64 L 162.00,104.36 L 164.00,108.12 L 166.00,111.88 L 168.00,115.64 L 170.00,119.36 L 172.00,123.01 L 174.00,126.57 L 176.00,130.01 L 178.00,133.31 L 180.00,136.45 L 182.00,139.40 L 184.00,142.15 L 186.00,144.67 L 188.00,146.95 L 190.00,148.97 L 192.00,150.72 L 194.00,152.18 L 196.00,153.34 L 198.00,154.20 L 200.00,154.75 L 202.00,154.99 L 204.00,154.91 L 206.00,154.52 L 208.00,153.81 L 210.00,152.80 L 212.00,151.48 L 214.00,149.88 L 216.00,147.99 L 218.00,145.84 L 220.00,143.44 L 222.00,140.80 L 224.00,137.95 L 226.00,134.90 L 228.00,131.68 L 230.00,128.30 L 232.00,124.80 L 234.00,121.19 L 236.00,117.50 L 238.00,113.77 L 240.00,110.00 L 242.00,106.23 L 244.00,102.50 L 246.00,98.81 L 248.00,95.20 L 250.00,91.70 L 252.00,88.32 L 254.00,85.10 L 256.00,82.05 L 258.00,79.20 L 260.00,76.56 L 262.00,74.16 L 264.00,72.01 L 266.00,70.12 L 268.00,68.52 L 270.00,67.20 L 272.00,66.19 L 274.00,65.48 L 276.00,65.09 L 278.00,65.01 L 280.00,65.25 L 282.00,65.80 L 284.00,66.66 L 286.00,67.82 L 288.00,69.28 L 290.00,71.03 L 292.00,73.05 L 294.00,75.33 L 296.00,77.85 L 298.00,80.60 L 300.00,83.55 L 302.00,86.69 L 304.00,89.99 L 306.00,93.43 L 308.00,96.99 L 310.00,100.64 L 312.00,104.36 L 314.00,108.12 L 316.00,111.88 L 318.00,115.64 L 320.00,119.36 L 322.00,123.01 L 324.00,126.57 L 326.00,130.01 L 328.00,133.31 L 330.00,136.45 L 332.00,139.40 L 334.00,142.15 L 336.00,144.67 L 338.00,146.95 L 340.00,148.97 L 342.00,150.72 L 344.00,152.18 L 346.00,153.34 L 348.00,154.20 L 350.00,154.75 L 352.00,154.99 L 354.00,154.91 L 356.00,154.52 L 358.00,153.81 L 360.00,152.80 L 362.00,151.48 L 364.00,149.88 L 366.00,147.99 L 368.00,145.84 L 370.00,143.44 L 372.00,140.80 L 374.00,137.95 L 376.00,134.90 L 378.00,131.68 L 380.00,128.30 L 382.00,124.80 L 384.00,121.19 L 386.00,117.50 L 388.00,113.77 L 390.00,110.00 L 392.00,106.23 L 394.00,102.50 L 396.00,98.81 L 398.00,95.20 L 400.00,91.70 L 402.00,88.32 L 404.00,85.10 L 406.00,82.05 L 408.00,79.20 L 410.00,76.56 L 412.00,74.16 L 414.00,72.01 L 416.00,70.12 L 418.00,68.52 L 420.00,67.20"/>
  <line x1="127.5" y1="107" x2="127.5" y2="113" class="tick"/>
  <text x="127.5" y="126" text-anchor="middle" font-size="10.5" font-style="italic" fill="#9AA0A6">¼T</text>
  <line x1="165.0" y1="107" x2="165.0" y2="113" class="tick"/>
  <text x="165.0" y="126" text-anchor="middle" font-size="10.5" font-style="italic" fill="#9AA0A6">½T</text>
  <line x1="202.5" y1="107" x2="202.5" y2="113" class="tick"/>
  <text x="202.5" y="126" text-anchor="middle" font-size="10.5" font-style="italic" fill="#9AA0A6">¾T</text>
  <line x1="240.0" y1="107" x2="240.0" y2="113" class="tick"/>
  <text x="240.0" y="126" text-anchor="middle" font-size="10.5" font-style="italic" fill="#9AA0A6">T</text>
  <line x1="127.5" y1="51.0" x2="277.5" y2="51.0" class="dim" marker-start="url(#aha)" marker-end="url(#aha)"/>
  <text x="202.5" y="45.0" text-anchor="middle" class="lbl" font-style="italic">T = one period</text>
  <text x="240" y="200" text-anchor="middle" font-size="11.5" fill="#9AA0A6">motion of ONE particle over time — the period is the time for one full cycle</text>

</svg>
