<svg xmlns="http://www.w3.org/2000/svg" viewBox="0 0 420 720" font-family="Segoe UI, Arial, sans-serif">
  <style>
    text { fill:#EAEAEA; font-size:14px; }
    .axis { stroke:#EAEAEA; stroke-width:1.6; }
    .line { fill:none; stroke:#E58F8F; stroke-width:2.6; }
    .cap { font-size:14px; text-anchor:middle; }
  </style>
  <defs>
    <marker id="dt" markerWidth="7" markerHeight="7" refX="5" refY="2.5" orient="auto"><path d="M0,0 L5,2.5 L0,5 Z" fill="#EAEAEA"/></marker>
  </defs>
  <!-- straight fall: constant deceleration -->
  <g data-step="1" transform="translate(125,10)">
    <line class="axis" x1="30" y1="160" x2="30" y2="20" marker-end="url(#dt)"/>
    <line class="axis" x1="30" y1="160" x2="150" y2="160" marker-end="url(#dt)"/>
    <line class="line" x1="35" y1="35" x2="140" y2="155"/>
    <text x="90" y="188" class="cap">velocity down uniformly</text>
    <text x="90" y="206" class="cap">constant deceleration</text>
  </g>
  <!-- shallow then steep: the drop speeds up, deceleration increasing -->
  <g data-step="2" transform="translate(125,250)">
    <line class="axis" x1="30" y1="160" x2="30" y2="20" marker-end="url(#dt)"/>
    <line class="axis" x1="30" y1="160" x2="150" y2="160" marker-end="url(#dt)"/>
    <path class="line" d="M35,35 Q110,45 140,155"/>
    <text x="90" y="188" class="cap">velocity down, faster</text>
    <text x="90" y="206" class="cap">deceleration increasing</text>
  </g>
  <!-- steep then shallow: the drop eases off, deceleration decreasing -->
  <g data-step="3" transform="translate(125,490)">
    <line class="axis" x1="30" y1="160" x2="30" y2="20" marker-end="url(#dt)"/>
    <line class="axis" x1="30" y1="160" x2="150" y2="160" marker-end="url(#dt)"/>
    <path class="line" d="M35,35 Q60,150 140,155"/>
    <text x="90" y="188" class="cap">velocity down, slower</text>
    <text x="90" y="206" class="cap">deceleration decreasing</text>
  </g>
</svg>
