<svg xmlns="http://www.w3.org/2000/svg" viewBox="0 0 420 275" font-family="Segoe UI, Arial, sans-serif">
  <style>
    text { fill:#EAEAEA; font-size:13px; }
    .sphere { fill:#6FB7E0; opacity:0.22; stroke:#6FB7E0; stroke-width:1.8; }
    .metal { fill:none; stroke:#EAEAEA; stroke-width:2; }
    .piston { fill:#9AA0A6; opacity:0.35; stroke:#EAEAEA; stroke-width:1.5; }
    .jet { stroke:#6FB7E0; stroke-width:2; }
    .force { stroke:#E58F8F; stroke-width:2.4; }
    .lbl { font-size:12px; }
  </style>
  <!-- spherical vessel with many holes -->
  <circle class="sphere" cx="210" cy="140" r="70"/>
  <!-- jets spurting equally in all directions -->
  <g class="jet">
    <line x1="210" y1="70" x2="210" y2="45" marker-end="url(#j)"/>
    <line x1="259" y1="91" x2="277" y2="73" marker-end="url(#j)"/>
    <line x1="280" y1="140" x2="305" y2="140" marker-end="url(#j)"/>
    <line x1="259" y1="189" x2="277" y2="207" marker-end="url(#j)"/>
    <line x1="161" y1="189" x2="143" y2="207" marker-end="url(#j)"/>
    <line x1="140" y1="140" x2="118" y2="140" marker-end="url(#j)"/>
    <line x1="161" y1="91" x2="143" y2="73" marker-end="url(#j)"/>
  </g>
  <!-- cylinder + piston with applied force on left -->
  <rect class="metal" x="55" y="128" width="87" height="24"/>
  <rect class="piston" x="60" y="130" width="16" height="20"/>
  <line class="force" x1="30" y1="140" x2="58" y2="140" marker-end="url(#f)"/>
  <text x="25" y="132" class="lbl" fill="#E58F8F">force F</text>

  <text x="210" y="245" text-anchor="middle" class="lbl">Applied pressure is transmitted equally</text>
  <text x="210" y="263" text-anchor="middle" class="lbl">in all directions (Pascal's principle)</text>
  <defs>
    <marker id="j" markerWidth="7" markerHeight="7" refX="3.5" refY="6" orient="auto"><path d="M0,0 L3.5,7 L7,0 Z" fill="#6FB7E0"/></marker>
    <marker id="f" markerWidth="8" markerHeight="8" refX="4" refY="6" orient="auto"><path d="M0,0 L4,7 L8,0 Z" fill="#E58F8F"/></marker>
  </defs>
</svg>
