<svg xmlns="http://www.w3.org/2000/svg" viewBox="0 0 640 340" font-family="Segoe UI, Arial, sans-serif">
  <style>
    text { fill:#EAEAEA; }
    .axis { stroke:#9AA0A6; stroke-width:1.4; }
    .efield { fill:none; stroke:#E8B65A; stroke-width:2.4; }
    .bfield { fill:none; stroke:#6FB7E0; stroke-width:2.4; }
    .leader { stroke:#9AA0A6; stroke-width:1.1; }
    .amber { fill:#E8B65A; } .blue { fill:#6FB7E0; }
  </style>
  <defs>
    <marker id="ah" markerWidth="9" markerHeight="9" refX="7" refY="4.5" orient="auto"><path d="M0,0 L9,4.5 L0,9 z" fill="#EAEAEA"/></marker>
  </defs>
  <!-- propagation axis -->
  <line class="axis" x1="70" y1="180" x2="600" y2="180" marker-end="url(#ah)"/>
  <text x="558" y="205" font-size="12">direction of</text>
  <text x="558" y="219" font-size="12">propagation</text>
  <!-- vibrating charged particle -->
  <line class="axis" x1="70" y1="120" x2="70" y2="240"/>
  <circle cx="70" cy="180" r="9" fill="#EAEAEA"/>
  <text x="14" y="176" font-size="11">vibrating</text>
  <text x="14" y="190" font-size="11">charged</text>
  <text x="14" y="204" font-size="11">particle</text>
  <!-- fields -->
  <path class="bfield" d="M70.0,180.0 L73.0,178.2 L76.0,176.4 L78.9,174.7 L81.9,172.9 L84.8,171.2 L87.8,169.5 L90.7,167.8 L93.6,166.2 L96.5,164.6 L99.3,163.0 L102.2,161.5 L105.0,160.0 L107.8,158.6 L110.5,157.2 L113.2,156.0 L115.9,154.7 L118.5,153.6 L121.1,152.5 L123.7,151.5 L126.2,150.6 L128.7,149.7 L131.1,148.9 L133.5,148.3 L135.8,147.7 L138.1,147.2 L140.3,146.7 L142.5,146.4 L144.6,146.2 L146.7,146.0 L148.7,146.0 L150.7,146.0 L152.6,146.2 L154.5,146.4 L156.3,146.7 L158.1,147.2 L159.8,147.7 L161.5,148.3 L163.1,148.9 L164.7,149.7 L166.2,150.6 L167.7,151.5 L169.1,152.5 L170.5,153.6 L171.9,154.7 L173.2,156.0 L174.5,157.2 L175.8,158.6 L177.0,160.0 L178.2,161.5 L179.3,163.0 L180.5,164.6 L181.6,166.2 L182.7,167.8 L183.8,169.5 L184.8,171.2 L185.9,172.9 L186.9,174.7 L188.0,176.4 L189.0,178.2 L190.0,180.0 L191.0,181.8 L192.0,183.6 L193.1,185.3 L194.1,187.1 L195.2,188.8 L196.2,190.5 L197.3,192.2 L198.4,193.8 L199.5,195.4 L200.7,197.0 L201.8,198.5 L203.0,200.0 L204.2,201.4 L205.5,202.8 L206.8,204.0 L208.1,205.3 L209.5,206.4 L210.9,207.5 L212.3,208.5 L213.8,209.4 L215.3,210.3 L216.9,211.1 L218.5,211.7 L220.2,212.3 L221.9,212.8 L223.7,213.3 L225.5,213.6 L227.4,213.8 L229.3,214.0 L231.3,214.0 L233.3,214.0 L235.4,213.8 L237.5,213.6 L239.7,213.3 L241.9,212.8 L244.2,212.3 L246.5,211.7 L248.9,211.1 L251.3,210.3 L253.8,209.4 L256.3,208.5 L258.9,207.5 L261.5,206.4 L264.1,205.3 L266.8,204.0 L269.5,202.8 L272.2,201.4 L275.0,200.0 L277.8,198.5 L280.6,197.0 L283.5,195.4 L286.4,193.8 L289.3,192.2 L292.2,190.5 L295.2,188.8 L298.1,187.1 L301.1,185.3 L304.0,183.6 L307.0,181.8 L310.0,180.0 L313.0,178.2 L316.0,176.4 L318.9,174.7 L321.9,172.9 L324.8,171.2 L327.8,169.5 L330.7,167.8 L333.6,166.2 L336.5,164.6 L339.3,163.0 L342.2,161.5 L345.0,160.0 L347.8,158.6 L350.5,157.2 L353.2,156.0 L355.9,154.7 L358.5,153.6 L361.1,152.5 L363.7,151.5 L366.2,150.6 L368.7,149.7 L371.1,148.9 L373.5,148.3 L375.8,147.7 L378.1,147.2 L380.3,146.7 L382.5,146.4 L384.6,146.2 L386.7,146.0 L388.7,146.0 L390.7,146.0 L392.6,146.2 L394.5,146.4 L396.3,146.7 L398.1,147.2 L399.8,147.7 L401.5,148.3 L403.1,148.9 L404.7,149.7 L406.2,150.6 L407.7,151.5 L409.1,152.5 L410.5,153.6 L411.9,154.7 L413.2,156.0 L414.5,157.2 L415.8,158.6 L417.0,160.0 L418.2,161.5 L419.4,163.0 L420.5,164.6 L421.6,166.2 L422.7,167.8 L423.8,169.5 L424.8,171.2 L425.9,172.9 L426.9,174.7 L428.0,176.4 L429.0,178.2 L430.0,180.0 L431.0,181.8 L432.0,183.6 L433.1,185.3 L434.1,187.1 L435.2,188.8 L436.2,190.5 L437.3,192.2 L438.4,193.8 L439.5,195.4 L440.6,197.0 L441.8,198.5 L443.0,200.0 L444.2,201.4 L445.5,202.8 L446.8,204.0 L448.1,205.3 L449.5,206.4 L450.9,207.5 L452.3,208.5 L453.8,209.4 L455.3,210.3 L456.9,211.1 L458.5,211.7 L460.2,212.3 L461.9,212.8 L463.7,213.3 L465.5,213.6 L467.4,213.8 L469.3,214.0 L471.3,214.0 L473.3,214.0 L475.4,213.8 L477.5,213.6 L479.7,213.3 L481.9,212.8 L484.2,212.3 L486.5,211.7 L488.9,211.1 L491.3,210.3 L493.8,209.4 L496.3,208.5 L498.9,207.5 L501.5,206.4 L504.1,205.3 L506.8,204.0 L509.5,202.8 L512.2,201.4 L515.0,200.0 L517.8,198.5 L520.6,197.0 L523.5,195.4 L526.4,193.8 L529.3,192.2 L532.2,190.5 L535.2,188.8 L538.1,187.1 L541.1,185.3 L544.0,183.6 L547.0,181.8 L550.0,180.0" opacity="0.9"/>
  <path class="efield" d="M70.0,180.0 L72.0,176.4 L74.0,172.9 L76.0,169.4 L78.0,165.9 L80.0,162.4 L82.0,159.0 L84.0,155.6 L86.0,152.3 L88.0,149.1 L90.0,146.0 L92.0,143.0 L94.0,140.0 L96.0,137.2 L98.0,134.5 L100.0,131.9 L102.0,129.5 L104.0,127.2 L106.0,125.0 L108.0,123.0 L110.0,121.1 L112.0,119.4 L114.0,117.9 L116.0,116.5 L118.0,115.3 L120.0,114.3 L122.0,113.5 L124.0,112.8 L126.0,112.4 L128.0,112.1 L130.0,112.0 L132.0,112.1 L134.0,112.4 L136.0,112.8 L138.0,113.5 L140.0,114.3 L142.0,115.3 L144.0,116.5 L146.0,117.9 L148.0,119.4 L150.0,121.1 L152.0,123.0 L154.0,125.0 L156.0,127.2 L158.0,129.5 L160.0,131.9 L162.0,134.5 L164.0,137.2 L166.0,140.0 L168.0,143.0 L170.0,146.0 L172.0,149.1 L174.0,152.3 L176.0,155.6 L178.0,159.0 L180.0,162.4 L182.0,165.9 L184.0,169.4 L186.0,172.9 L188.0,176.4 L190.0,180.0 L192.0,183.6 L194.0,187.1 L196.0,190.6 L198.0,194.1 L200.0,197.6 L202.0,201.0 L204.0,204.4 L206.0,207.7 L208.0,210.9 L210.0,214.0 L212.0,217.0 L214.0,220.0 L216.0,222.8 L218.0,225.5 L220.0,228.1 L222.0,230.5 L224.0,232.8 L226.0,235.0 L228.0,237.0 L230.0,238.9 L232.0,240.6 L234.0,242.1 L236.0,243.5 L238.0,244.7 L240.0,245.7 L242.0,246.5 L244.0,247.2 L246.0,247.6 L248.0,247.9 L250.0,248.0 L252.0,247.9 L254.0,247.6 L256.0,247.2 L258.0,246.5 L260.0,245.7 L262.0,244.7 L264.0,243.5 L266.0,242.1 L268.0,240.6 L270.0,238.9 L272.0,237.0 L274.0,235.0 L276.0,232.8 L278.0,230.5 L280.0,228.1 L282.0,225.5 L284.0,222.8 L286.0,220.0 L288.0,217.0 L290.0,214.0 L292.0,210.9 L294.0,207.7 L296.0,204.4 L298.0,201.0 L300.0,197.6 L302.0,194.1 L304.0,190.6 L306.0,187.1 L308.0,183.6 L310.0,180.0 L312.0,176.4 L314.0,172.9 L316.0,169.4 L318.0,165.9 L320.0,162.4 L322.0,159.0 L324.0,155.6 L326.0,152.3 L328.0,149.1 L330.0,146.0 L332.0,143.0 L334.0,140.0 L336.0,137.2 L338.0,134.5 L340.0,131.9 L342.0,129.5 L344.0,127.2 L346.0,125.0 L348.0,123.0 L350.0,121.1 L352.0,119.4 L354.0,117.9 L356.0,116.5 L358.0,115.3 L360.0,114.3 L362.0,113.5 L364.0,112.8 L366.0,112.4 L368.0,112.1 L370.0,112.0 L372.0,112.1 L374.0,112.4 L376.0,112.8 L378.0,113.5 L380.0,114.3 L382.0,115.3 L384.0,116.5 L386.0,117.9 L388.0,119.4 L390.0,121.1 L392.0,123.0 L394.0,125.0 L396.0,127.2 L398.0,129.5 L400.0,131.9 L402.0,134.5 L404.0,137.2 L406.0,140.0 L408.0,143.0 L410.0,146.0 L412.0,149.1 L414.0,152.3 L416.0,155.6 L418.0,159.0 L420.0,162.4 L422.0,165.9 L424.0,169.4 L426.0,172.9 L428.0,176.4 L430.0,180.0 L432.0,183.6 L434.0,187.1 L436.0,190.6 L438.0,194.1 L440.0,197.6 L442.0,201.0 L444.0,204.4 L446.0,207.7 L448.0,210.9 L450.0,214.0 L452.0,217.0 L454.0,220.0 L456.0,222.8 L458.0,225.5 L460.0,228.1 L462.0,230.5 L464.0,232.8 L466.0,235.0 L468.0,237.0 L470.0,238.9 L472.0,240.6 L474.0,242.1 L476.0,243.5 L478.0,244.7 L480.0,245.7 L482.0,246.5 L484.0,247.2 L486.0,247.6 L488.0,247.9 L490.0,248.0 L492.0,247.9 L494.0,247.6 L496.0,247.2 L498.0,246.5 L500.0,245.7 L502.0,244.7 L504.0,243.5 L506.0,242.1 L508.0,240.6 L510.0,238.9 L512.0,237.0 L514.0,235.0 L516.0,232.8 L518.0,230.5 L520.0,228.1 L522.0,225.5 L524.0,222.8 L526.0,220.0 L528.0,217.0 L530.0,214.0 L532.0,210.9 L534.0,207.7 L536.0,204.4 L538.0,201.0 L540.0,197.6 L542.0,194.1 L544.0,190.6 L546.0,187.1 L548.0,183.6 L550.0,180.0"/>
  <text x="120" y="95" font-size="12" class="amber">electric field</text>
  <line class="leader" x1="150" y1="100" x2="140" y2="120"/>
  <text x="330" y="120" font-size="12" class="blue">magnetic field</text>
  <line class="leader" x1="360" y1="126" x2="352" y2="158"/>
  <!-- wavelength between crests at x=130 and x=370 -->
  <line class="leader" x1="130" y1="108" x2="130" y2="300" stroke-dasharray="4 3"/>
  <line class="leader" x1="370" y1="108" x2="370" y2="300" stroke-dasharray="4 3"/>
  <line class="axis" x1="130" y1="290" x2="370" y2="290" marker-start="url(#ah)" marker-end="url(#ah)"/>
  <text x="250" y="312" font-size="12" text-anchor="middle">wavelength &#955;</text>
  <!-- EM wave label -->
  <text x="452" y="118" font-size="12">electromagnetic wave</text>
  <line class="leader" x1="470" y1="124" x2="452" y2="150"/>
</svg>