<svg xmlns="http://www.w3.org/2000/svg" viewBox="0 0 480 320" font-family="Segoe UI, Arial, sans-serif">
  <style>
    text { fill:#EAEAEA; }
    .wire { stroke:#EAEAEA; stroke-width:1.8; fill:none; }
    .res { fill:#6FB7E0; opacity:0.18; stroke:#6FB7E0; stroke-width:1.6; }
    .fuse { fill:#E8B65A; opacity:0.20; stroke:#E8B65A; stroke-width:1.6; }
    .open { stroke:#EAEAEA; stroke-width:1.6; fill:none; }
    .amber { fill:#E8B65A; }
  </style>
  <!-- top rail with fuse and mains -->
  <line class="wire" x1="60" y1="50" x2="150" y2="50"/>
  <rect class="fuse" x="150" y="42" width="46" height="16" rx="3"/>
  <text x="173" y="35" text-anchor="middle" font-size="11" class="amber">fuse</text>
  <line class="wire" x1="196" y1="50" x2="280" y2="50"/>
  <circle cx="300" cy="50" r="3" class="wire"/>
  <circle cx="340" cy="50" r="3" class="wire"/>
  <line class="wire" x1="303" y1="50" x2="337" y2="50"/>
  <text x="320" y="35" text-anchor="middle" font-size="11">mains supply</text>
  <line class="wire" x1="343" y1="50" x2="420" y2="50"/>

  <!-- sides -->
  <line class="wire" x1="60" y1="50" x2="60" y2="270"/>
  <line class="wire" x1="420" y1="50" x2="420" y2="270"/>
  <line class="wire" x1="60" y1="270" x2="120" y2="270"/>

  <!-- three parallel branches P Q R each with switch -->
  <!-- P -->
  <line class="wire" x1="120" y1="270" x2="120" y2="120"/>
  <line class="wire" x1="120" y1="120" x2="160" y2="120"/>
  <rect class="res" x="160" y="108" width="64" height="24" rx="3"/>
  <text x="192" y="102" text-anchor="middle" font-size="12">P</text>
  <line class="wire" x1="224" y1="120" x2="270" y2="120"/>
  <line class="open" x1="290" y1="120" x2="312" y2="108"/>
  <circle cx="290" cy="120" r="2.5" class="amber"/>
  <line class="wire" x1="315" y1="120" x2="420" y2="120"/>
  <!-- Q -->
  <line class="wire" x1="120" y1="270" x2="120" y2="180" opacity="0"/>
  <line class="wire" x1="140" y1="180" x2="160" y2="180"/>
  <line class="wire" x1="140" y1="120" x2="140" y2="180"/>
  <rect class="res" x="160" y="168" width="64" height="24" rx="3"/>
  <text x="192" y="162" text-anchor="middle" font-size="12">Q</text>
  <line class="wire" x1="224" y1="180" x2="270" y2="180"/>
  <line class="open" x1="290" y1="180" x2="312" y2="168"/>
  <circle cx="290" cy="180" r="2.5" class="amber"/>
  <line class="wire" x1="315" y1="180" x2="400" y2="180"/>
  <line class="wire" x1="400" y1="120" x2="400" y2="240"/>
  <!-- R -->
  <line class="wire" x1="120" y1="240" x2="160" y2="240"/>
  <rect class="res" x="160" y="228" width="64" height="24" rx="3"/>
  <text x="192" y="222" text-anchor="middle" font-size="12">R</text>
  <line class="wire" x1="224" y1="240" x2="270" y2="240"/>
  <line class="open" x1="290" y1="240" x2="312" y2="228"/>
  <circle cx="290" cy="240" r="2.5" class="amber"/>
  <line class="wire" x1="315" y1="240" x2="400" y2="240"/>
</svg>
