<svg xmlns="http://www.w3.org/2000/svg" viewBox="0 0 420 480" font-family="Segoe UI, Arial, sans-serif">
  <style>
    text { fill:#EAEAEA; font-size:14px; }
    .axis { stroke:#EAEAEA; stroke-width:1.6; }
    .line { fill:none; stroke:#6FB7E0; stroke-width:2.6; }
    .cap { font-size:14px; text-anchor:middle; }
  </style>
  <defs>
    <marker id="fa" markerWidth="7" markerHeight="7" refX="5" refY="2.5" orient="auto"><path d="M0,0 L5,2.5 L0,5 Z" fill="#EAEAEA"/></marker>
  </defs>
  <!-- panel 1: stationary -->
  <g data-step="1" transform="translate(25,10)">
    <line class="axis" x1="30" y1="160" x2="30" y2="20" marker-end="url(#fa)"/>
    <line class="axis" x1="30" y1="160" x2="150" y2="160" marker-end="url(#fa)"/>
    <line class="line" x1="30" y1="70" x2="145" y2="70"/>
    <text x="90" y="188" class="cap">stationary</text>
    <text x="90" y="206" class="cap">(zero velocity)</text>
  </g>
  <!-- panel 2: uniform increasing -->
  <g data-step="2" transform="translate(225,10)">
    <line class="axis" x1="30" y1="160" x2="30" y2="20" marker-end="url(#fa)"/>
    <line class="axis" x1="30" y1="160" x2="150" y2="160" marker-end="url(#fa)"/>
    <line class="line" x1="30" y1="155" x2="140" y2="35"/>
    <text x="90" y="188" class="cap">constant / uniform</text>
    <text x="90" y="206" class="cap">velocity</text>
  </g>
  <!-- panel 3: increasing rate (accelerating) -->
  <g data-step="3" transform="translate(25,250)">
    <line class="axis" x1="30" y1="160" x2="30" y2="20" marker-end="url(#fa)"/>
    <line class="axis" x1="30" y1="160" x2="150" y2="160" marker-end="url(#fa)"/>
    <path class="line" d="M30,155 Q110,150 140,35"/>
    <text x="90" y="188" class="cap">increasing rate:</text>
    <text x="90" y="206" class="cap">increasing velocity</text>
  </g>
  <!-- panel 4: decreasing rate -->
  <g data-step="4" transform="translate(225,250)">
    <line class="axis" x1="30" y1="160" x2="30" y2="20" marker-end="url(#fa)"/>
    <line class="axis" x1="30" y1="160" x2="150" y2="160" marker-end="url(#fa)"/>
    <path class="line" d="M30,155 Q60,40 140,30"/>
    <text x="90" y="188" class="cap">decreasing rate:</text>
    <text x="90" y="206" class="cap">decreasing velocity</text>
  </g>
</svg>
