<svg xmlns="http://www.w3.org/2000/svg" viewBox="0 0 300 360" font-family="Segoe UI, Arial, sans-serif">
  <style>
    text { fill:#EAEAEA; }
    .shape { fill:#6FB7E0; opacity:0.16; stroke:#EAEAEA; stroke-width:1.6; }
    .med { stroke:#9AA0A6; stroke-width:1; stroke-dasharray:4 3; fill:none; }
    .cg { fill:#E8B65A; stroke:#E8B65A; }
    .lbl { font-size:14px; }
  </style>
  <!-- triangle -->
  <polygon class="shape" points="40,140 120,140 95,60"/>
  <line class="med" x1="40" y1="140" x2="107" y2="100"/>
  <line class="med" x1="120" y1="140" x2="67" y2="100"/>
  <line class="med" x1="95" y1="60" x2="80" y2="140"/>
  <circle class="cg" cx="85" cy="113" r="3.4"/>
  <text class="lbl" x="80" y="165" text-anchor="middle">triangle</text>
  <!-- circle -->
  <circle class="shape" cx="205" cy="105" r="42"/>
  <circle class="cg" cx="205" cy="105" r="3.4"/>
  <text class="lbl" x="205" y="165" text-anchor="middle">circle</text>
  <!-- square -->
  <rect class="shape" x="60" y="205" width="80" height="80"/>
  <line class="med" x1="60" y1="205" x2="140" y2="285"/>
  <line class="med" x1="140" y1="205" x2="60" y2="285"/>
  <circle class="cg" cx="100" cy="245" r="3.4"/>
  <text class="lbl" x="100" y="305" text-anchor="middle">square</text>
  <!-- rectangle -->
  <rect class="shape" x="170" y="220" width="100" height="55"/>
  <line class="med" x1="170" y1="220" x2="270" y2="275"/>
  <line class="med" x1="270" y1="220" x2="170" y2="275"/>
  <circle class="cg" cx="220" cy="247.5" r="3.4"/>
  <text class="lbl" x="220" y="305" text-anchor="middle">rectangle</text>
  <circle class="cg" cx="76" cy="331" r="3.4"/>
  <text class="lbl" x="86" y="336" fill="#E8B65A">= centre of gravity</text>
  <text class="lbl" x="150" y="354" text-anchor="middle" fill="#E8B65A">(at the geometric centre)</text>
</svg>
